
<svg viewBox="0 0 1080 1080" xmlns="http://www.w3.org/2000/svg">
  <path stroke="currentColor" d="M746 0L766 0M746 0L762 9M746 0L721 0M746 0L738 8M766 0L746 0M766 0L762 9M766 0L781 12M762 9L746 0M762 9L766 0M762 9L781 12M762 9L738 8M762 9L757 22M762 9L781 24M781 12L766 0M781 12L762 9M781 12L781 24M781 12L799 29M721 0L746 0M721 0L738 8M721 0L691 2M721 0L709 8M738 8L746 0M738 8L762 9M738 8L721 0M738 8L709 8M738 8L757 22M738 8L729 20M691 2L721 0M691 2L709 8M691 2L658 5M691 2L677 10M709 8L721 0M709 8L738 8M709 8L691 2M709 8L677 10M709 8L729 20M709 8L698 21M658 5L691 2M658 5L677 10M658 5L623 10M658 5L643 14M677 10L691 2M677 10L709 8M677 10L658 5M677 10L643 14M677 10L698 21M677 10L665 23M623 10L658 5M623 10L643 14M623 10L587 16M623 10L607 18M643 14L658 5M643 14L677 10M643 14L623 10M643 14L607 18M643 14L665 23M643 14L629 26M587 16L623 10M587 16L607 18M587 16L549 23M587 16L570 25M607 18L623 10M607 18L643 14M607 18L587 16M607 18L570 25M607 18L629 26M607 18L593 31M549 23L587 16M549 23L570 25M549 23L510 32M549 23L532 33M570 25L587 16M570 25L607 18M570 25L549 23M570 25L532 33M570 25L593 31M570 25L555 38M510 32L549 23M510 32L532 33M510 32L472 43M510 32L493 42M532 33L549 23M532 33L570 25M532 33L510 32M532 33L493 42M532 33L555 38M532 33L516 46M472 43L510 32M472 43L493 42M472 43L433 55M472 43L454 54M493 42L510 32M493 42L532 33M493 42L472 43M493 42L454 54M493 42L516 46M493 42L477 56M433 55L472 43M433 55L454 54M433 55L394 69M433 55L415 67M454 54L472 43M454 54L493 42M454 54L433 55M454 54L415 67M454 54L438 69M454 54L477 56M394 69L433 55M394 69L415 67M394 69L355 84M394 69L376 81M415 67L433 55M415 67L454 54M415 67L394 69M415 67L376 81M415 67L399 82M415 67L438 69M355 84L394 69M355 84L376 81M355 84L338 97M355 84L317 100M376 81L394 69M376 81L415 67M376 81L355 84M376 81L338 97M376 81L399 82M376 81L360 97M338 97L355 84M338 97L376 81M338 97L317 100M338 97L360 97M338 97L322 114M338 97L300 114M317 100L355 84M317 100L338 97M317 100L300 114M317 100L279 118M399 82L415 67M399 82L376 81M399 82L360 97M399 82L423 86M399 82L438 69M399 82L384 100M360 97L376 81M360 97L338 97M360 97L399 82M360 97L384 100M360 97L322 114M360 97L345 116M423 86L399 82M423 86L438 69M423 86L384 100M423 86L447 93M423 86L462 74M423 86L408 106M438 69L454 54M438 69L415 67M438 69L399 82M438 69L423 86M438 69L462 74M438 69L477 56M384 100L399 82M384 100L360 97M384 100L423 86M384 100L408 106M384 100L345 116M384 100L370 121M447 93L423 86M447 93L462 74M447 93L408 106M447 93L473 101M447 93L487 81M447 93L433 113M462 74L423 86M462 74L438 69M462 74L447 93M462 74L487 81M462 74L477 56M462 74L501 62M408 106L423 86M408 106L384 100M408 106L447 93M408 106L433 113M408 106L370 121M408 106L394 127M473 101L447 93M473 101L487 81M473 101L433 113M473 101L499 111M473 101L513 91M473 101L459 121M487 81L447 93M487 81L462 74M487 81L473 101M487 81L513 91M487 81L501 62M487 81L526 72M433 113L447 93M433 113L408 106M433 113L473 101M433 113L459 121M433 113L394 127M433 113L420 134M499 111L473 101M499 111L513 91M499 111L459 121M499 111L527 123M499 111L540 103M499 111L486 131M513 91L473 101M513 91L487 81M513 91L499 111M513 91L540 103M513 91L526 72M513 91L553 83M459 121L473 101M459 121L433 113M459 121L499 111M459 121L486 131M459 121L420 134M459 121L445 142M527 123L499 111M527 123L540 103M527 123L486 131M527 123L555 137M527 123L568 117M527 123L513 142M540 103L499 111M540 103L513 91M540 103L527 123M540 103L568 117M540 103L553 83M540 103L580 97M486 131L499 111M486 131L459 121M486 131L527 123M486 131L513 142M486 131L445 142M486 131L472 151M555 137L527 123M555 137L568 117M555 137L513 142M555 137L583 151M555 137L596 133M555 137L541 154M568 117L527 123M568 117L540 103M568 117L555 137M568 117L596 133M568 117L580 97M568 117L607 114M513 142L527 123M513 142L486 131M513 142L555 137M513 142L541 154M513 142L472 151M513 142L499 160M583 151L555 137M583 151L596 133M583 151L541 154M583 151L613 167M583 151L625 150M583 151L569 167M596 133L555 137M596 133L568 117M596 133L583 151M596 133L625 150M596 133L607 114M596 133L636 131M541 154L555 137M541 154L513 142M541 154L583 151M541 154L569 167M541 154L499 160M541 154L526 169M613 167L583 151M613 167L625 150M613 167L569 167M613 167L645 185M613 167L655 169M613 167L598 179M625 150L583 151M625 150L596 133M625 150L613 167M625 150L655 169M625 150L665 151M625 150L636 131M569 167L583 151M569 167L541 154M569 167L613 167M569 167L598 179M569 167L553 178M569 167L526 169M645 185L613 167M645 185L655 169M645 185L598 179M645 185L682 205M645 185L688 191M645 185L628 190M655 169L613 167M655 169L625 150M655 169L645 185M655 169L688 191M655 169L695 173M655 169L665 151M598 179L613 167M598 179L569 167M598 179L645 185M598 179L628 190M598 179L579 184M598 179L553 178M682 205L645 185M682 205L688 191M682 205L628 190M682 205L723 214M682 205L731 230M688 191L645 185M688 191L655 169M688 191L682 205M688 191L723 214M688 191L695 173M688 191L726 197M628 190L645 185M628 190L598 179M628 190L682 205M628 190L579 184M723 214L682 205M723 214L688 191M723 214L731 230M723 214L726 197M723 214L759 223M723 214L761 241M731 230L682 205M731 230L723 214M731 230L761 241M731 230L771 258M695 173L655 169M695 173L688 191M695 173L726 197M695 173L703 154M695 173L665 151M695 173L733 177M726 197L688 191M726 197L723 214M726 197L695 173M726 197L733 177M726 197L759 223M726 197L762 203M703 154L695 173M703 154L665 151M703 154L733 177M703 154L712 134M703 154L674 132M703 154L740 157M665 151L625 150M665 151L655 169M665 151L695 173M665 151L703 154M665 151L674 132M665 151L636 131M733 177L695 173M733 177L726 197M733 177L703 154M733 177L740 157M733 177L762 203M733 177L768 182M712 134L703 154M712 134L674 132M712 134L740 157M712 134L720 113M712 134L684 112M712 134L747 136M674 132L703 154M674 132L665 151M674 132L712 134M674 132L684 112M674 132L646 112M674 132L636 131M740 157L703 154M740 157L733 177M740 157L712 134M740 157L747 136M740 157L775 161M740 157L768 182M720 113L712 134M720 113L684 112M720 113L747 136M720 113L728 93M720 113L693 92M720 113L754 115M684 112L712 134M684 112L674 132M684 112L720 113M684 112L693 92M684 112L657 92M684 112L646 112M747 136L712 134M747 136L740 157M747 136L720 113M747 136L754 115M747 136L781 140M747 136L775 161M728 93L720 113M728 93L693 92M728 93L754 115M728 93L736 73M728 93L702 72M728 93L761 95M693 92L720 113M693 92L684 112M693 92L728 93M693 92L702 72M693 92L667 72M693 92L657 92M754 115L720 113M754 115L747 136M754 115L728 93M754 115L761 95M754 115L787 119M754 115L781 140M736 73L728 93M736 73L702 72M736 73L761 95M736 73L744 54M736 73L711 53M736 73L768 75M702 72L728 93M702 72L693 92M702 72L736 73M702 72L711 53M702 72L677 54M702 72L667 72M761 95L728 93M761 95L754 115M761 95L736 73M761 95L768 75M761 95L792 98M761 95L787 119M744 54L736 73M744 54L711 53M744 54L768 75M744 54L751 37M744 54L720 36M744 54L774 57M711 53L736 73M711 53L702 72M711 53L744 54M711 53L720 36M711 53L688 36M711 53L677 54M768 75L736 73M768 75L761 95M768 75L744 54M768 75L774 57M768 75L797 79M768 75L792 98M751 37L744 54M751 37L720 36M751 37L774 57M751 37L757 22M751 37L729 20M751 37L778 39M720 36L744 54M720 36L711 53M720 36L751 37M720 36L729 20M720 36L698 21M720 36L688 36M774 57L744 54M774 57L768 75M774 57L751 37M774 57L778 39M774 57L800 60M774 57L797 79M757 22L762 9M757 22L738 8M757 22L751 37M757 22L729 20M757 22L778 39M757 22L781 24M729 20L738 8M729 20L709 8M729 20L751 37M729 20L720 36M729 20L757 22M729 20L698 21M778 39L751 37M778 39L774 57M778 39L757 22M778 39L781 24M778 39L802 44M778 39L800 60M781 24L762 9M781 24L781 12M781 24L757 22M781 24L778 39M781 24L799 29M781 24L802 44M698 21L709 8M698 21L677 10M698 21L720 36M698 21L729 20M698 21L665 23M698 21L688 36M665 23L677 10M665 23L643 14M665 23L698 21M665 23L629 26M665 23L688 36M665 23L653 38M629 26L643 14M629 26L607 18M629 26L665 23M629 26L593 31M629 26L653 38M629 26L616 42M593 31L607 18M593 31L570 25M593 31L629 26M593 31L555 38M593 31L616 42M593 31L579 47M555 38L570 25M555 38L532 33M555 38L593 31M555 38L516 46M555 38L579 47M555 38L540 53M516 46L532 33M516 46L493 42M516 46L555 38M516 46L477 56M516 46L540 53M516 46L501 62M477 56L493 42M477 56L454 54M477 56L438 69M477 56L462 74M477 56L516 46M477 56L501 62M688 36L711 53M688 36L720 36M688 36L698 21M688 36L665 23M688 36L653 38M688 36L677 54M653 38L665 23M653 38L629 26M653 38L688 36M653 38L616 42M653 38L677 54M653 38L641 56M616 42L629 26M616 42L593 31M616 42L653 38M616 42L579 47M616 42L641 56M616 42L604 59M579 47L593 31M579 47L555 38M579 47L616 42M579 47L540 53M579 47L604 59M579 47L565 64M540 53L555 38M540 53L516 46M540 53L579 47M540 53L501 62M540 53L565 64M540 53L526 72M501 62L462 74M501 62L487 81M501 62L516 46M501 62L477 56M501 62L540 53M501 62L526 72M677 54L702 72M677 54L711 53M677 54L688 36M677 54L653 38M677 54L641 56M677 54L667 72M641 56L653 38M641 56L616 42M641 56L677 54M641 56L604 59M641 56L667 72M641 56L630 74M604 59L616 42M604 59L579 47M604 59L641 56M604 59L565 64M604 59L630 74M604 59L592 78M565 64L579 47M565 64L540 53M565 64L604 59M565 64L526 72M565 64L592 78M565 64L553 83M526 72L487 81M526 72L513 91M526 72L540 53M526 72L501 62M526 72L565 64M526 72L553 83M667 72L693 92M667 72L702 72M667 72L677 54M667 72L641 56M667 72L630 74M667 72L657 92M630 74L641 56M630 74L604 59M630 74L667 72M630 74L592 78M630 74L657 92M630 74L619 94M592 78L604 59M592 78L565 64M592 78L630 74M592 78L553 83M592 78L619 94M592 78L580 97M553 83L513 91M553 83L540 103M553 83L565 64M553 83L526 72M553 83L592 78M553 83L580 97M657 92L684 112M657 92L693 92M657 92L667 72M657 92L630 74M657 92L619 94M657 92L646 112M619 94L630 74M619 94L592 78M619 94L657 92M619 94L580 97M619 94L646 112M619 94L607 114M580 97L540 103M580 97L568 117M580 97L592 78M580 97L553 83M580 97L619 94M580 97L607 114M646 112L674 132M646 112L684 112M646 112L657 92M646 112L619 94M646 112L607 114M646 112L636 131M607 114L568 117M607 114L596 133M607 114L619 94M607 114L580 97M607 114L646 112M607 114L636 131M636 131L596 133M636 131L625 150M636 131L665 151M636 131L674 132M636 131L646 112M636 131L607 114M759 223L723 214M759 223L726 197M759 223L761 241M759 223L792 231M759 223L762 203M759 223L791 251M761 241L723 214M761 241L731 230M761 241L759 223M761 241L791 251M761 241L771 258M761 241L795 271M792 231L759 223M792 231L762 203M792 231L791 251M792 231L823 240M792 231L796 210M792 231L820 261M762 203L726 197M762 203L733 177M762 203L759 223M762 203L792 231M762 203L796 210M762 203L768 182M791 251L759 223M791 251L761 241M791 251L792 231M791 251L820 261M791 251L795 271M791 251L820 282M823 240L792 231M823 240L796 210M823 240L820 261M823 240L851 249M823 240L827 217M823 240L848 272M796 210L792 231M796 210L762 203M796 210L823 240M796 210L827 217M796 210L768 182M796 210L801 188M820 261L792 231M820 261L791 251M820 261L823 240M820 261L848 272M820 261L846 295M820 261L820 282M851 249L823 240M851 249L827 217M851 249L848 272M851 249L879 260M851 249L856 226M851 249L875 283M827 217L823 240M827 217L796 210M827 217L851 249M827 217L856 226M827 217L801 188M827 217L832 195M848 272L823 240M848 272L820 261M848 272L851 249M848 272L875 283M848 272L871 307M848 272L846 295M879 260L851 249M879 260L856 226M879 260L875 283M879 260L904 271M879 260L883 236M879 260L900 295M856 226L851 249M856 226L827 217M856 226L879 260M856 226L883 236M856 226L832 195M856 226L860 203M875 283L851 249M875 283L848 272M875 283L879 260M875 283L900 295M875 283L896 320M875 283L871 307M904 271L879 260M904 271L883 236M904 271L900 295M904 271L928 283M904 271L908 247M904 271L924 308M883 236L879 260M883 236L856 226M883 236L904 271M883 236L908 247M883 236L860 203M883 236L886 213M900 295L879 260M900 295L875 283M900 295L904 271M900 295L924 308M900 295L920 332M900 295L896 320M928 283L904 271M928 283L908 247M928 283L924 308M928 283L950 297M928 283L931 259M928 283L947 321M908 247L904 271M908 247L883 236M908 247L928 283M908 247L931 259M908 247L886 213M908 247L911 224M924 308L904 271M924 308L900 295M924 308L928 283M924 308L947 321M924 308L943 346M924 308L920 332M950 297L928 283M950 297L931 259M950 297L947 321M950 297L969 311M950 297L951 273M950 297L968 335M931 259L928 283M931 259L908 247M931 259L950 297M931 259L951 273M931 259L911 224M931 259L932 237M947 321L928 283M947 321L924 308M947 321L950 297M947 321L968 335M947 321L965 359M947 321L943 346M969 311L950 297M969 311L951 273M969 311L968 335M969 311L986 327M969 311L969 289M969 311L987 350M951 273L950 297M951 273L931 259M951 273L969 311M951 273L969 289M951 273L950 251M951 273L932 237M968 335L950 297M968 335L947 321M968 335L969 311M968 335L987 350M968 335L985 374M968 335L965 359M986 327L969 311M986 327L969 289M986 327L987 350M986 327L1000 344M986 327L982 306M986 327L1003 366M969 289L969 311M969 289L951 273M969 289L986 327M969 289L982 306M969 289L964 268M969 289L950 251M987 350L969 311M987 350L968 335M987 350L986 327M987 350L1003 366M987 350L1003 389M987 350L985 374M1000 344L986 327M1000 344L982 306M1000 344L1003 366M1000 344L1016 384M982 306L986 327M982 306L969 289M982 306L1000 344M982 306L964 268M1003 366L986 327M1003 366L987 350M1003 366L1000 344M1003 366L1016 384M1003 366L1003 389M1003 366L1019 406M1016 384L1000 344M1016 384L1003 366M1016 384L1019 406M1016 384L1031 424M964 268L969 289M964 268L982 306M964 268L944 231M964 268L950 251M944 231L964 268M944 231L950 251M944 231L924 196M944 231L930 215M950 251L951 273M950 251L969 289M950 251L964 268M950 251L944 231M950 251L930 215M950 251L932 237M924 196L944 231M924 196L930 215M924 196L903 163M924 196L909 181M930 215L944 231M930 215L950 251M930 215L924 196M930 215L909 181M930 215L911 202M930 215L932 237M903 163L924 196M903 163L909 181M903 163L881 132M903 163L887 149M909 181L924 196M909 181L930 215M909 181L903 163M909 181L887 149M909 181L889 169M909 181L911 202M881 132L903 163M881 132L887 149M881 132L860 103M881 132L865 120M887 149L903 163M887 149L909 181M887 149L881 132M887 149L865 120M887 149L867 139M887 149L889 169M860 103L881 132M860 103L865 120M860 103L839 76M860 103L843 92M865 120L881 132M865 120L887 149M865 120L860 103M865 120L843 92M865 120L844 110M865 120L867 139M839 76L860 103M839 76L843 92M839 76L819 51M839 76L823 67M843 92L860 103M843 92L865 120M843 92L839 76M843 92L823 67M843 92L822 84M843 92L844 110M819 51L839 76M819 51L823 67M819 51L799 29M819 51L802 44M823 67L839 76M823 67L843 92M823 67L819 51M823 67L802 44M823 67L800 60M823 67L822 84M799 29L781 12M799 29L781 24M799 29L819 51M799 29L802 44M802 44L778 39M802 44L781 24M802 44L819 51M802 44L823 67M802 44L799 29M802 44L800 60M800 60L774 57M800 60L778 39M800 60L823 67M800 60L802 44M800 60L797 79M800 60L822 84M797 79L768 75M797 79L774 57M797 79L800 60M797 79L792 98M797 79L822 84M797 79L820 103M792 98L761 95M792 98L768 75M792 98L797 79M792 98L787 119M792 98L820 103M792 98L817 123M787 119L754 115M787 119L761 95M787 119L792 98M787 119L781 140M787 119L817 123M787 119L812 144M781 140L747 136M781 140L754 115M781 140L787 119M781 140L775 161M781 140L812 144M781 140L807 166M775 161L740 157M775 161L747 136M775 161L781 140M775 161L768 182M775 161L807 166M775 161L801 188M768 182L733 177M768 182L740 157M768 182L762 203M768 182L796 210M768 182L775 161M768 182L801 188M822 84L843 92M822 84L823 67M822 84L800 60M822 84L797 79M822 84L820 103M822 84L844 110M820 103L797 79M820 103L792 98M820 103L822 84M820 103L817 123M820 103L844 110M820 103L843 130M817 123L792 98M817 123L787 119M817 123L820 103M817 123L812 144M817 123L843 130M817 123L840 151M812 144L787 119M812 144L781 140M812 144L817 123M812 144L807 166M812 144L840 151M812 144L837 173M807 166L781 140M807 166L775 161M807 166L812 144M807 166L801 188M807 166L837 173M807 166L832 195M801 188L796 210M801 188L827 217M801 188L775 161M801 188L768 182M801 188L807 166M801 188L832 195M844 110L865 120M844 110L843 92M844 110L822 84M844 110L820 103M844 110L843 130M844 110L867 139M843 130L820 103M843 130L817 123M843 130L844 110M843 130L840 151M843 130L867 139M843 130L866 159M840 151L817 123M840 151L812 144M840 151L843 130M840 151L837 173M840 151L866 159M840 151L864 181M837 173L812 144M837 173L807 166M837 173L840 151M837 173L832 195M837 173L864 181M837 173L860 203M832 195L827 217M832 195L856 226M832 195L807 166M832 195L801 188M832 195L837 173M832 195L860 203M867 139L887 149M867 139L865 120M867 139L844 110M867 139L843 130M867 139L866 159M867 139L889 169M866 159L843 130M866 159L840 151M866 159L867 139M866 159L864 181M866 159L889 169M866 159L889 190M864 181L840 151M864 181L837 173M864 181L866 159M864 181L860 203M864 181L889 190M864 181L886 213M860 203L856 226M860 203L883 236M860 203L837 173M860 203L832 195M860 203L864 181M860 203L886 213M889 169L909 181M889 169L887 149M889 169L867 139M889 169L866 159M889 169L889 190M889 169L911 202M889 190L866 159M889 190L864 181M889 190L889 169M889 190L886 213M889 190L911 202M889 190L911 224M886 213L883 236M886 213L908 247M886 213L864 181M886 213L860 203M886 213L889 190M886 213L911 224M911 202L930 215M911 202L909 181M911 202L889 169M911 202L889 190M911 202L911 224M911 202L932 237M911 224L908 247M911 224L931 259M911 224L889 190M911 224L886 213M911 224L911 202M911 224L932 237M932 237L931 259M932 237L951 273M932 237L950 251M932 237L930 215M932 237L911 202M932 237L911 224M322 114L338 97M322 114L360 97M322 114L300 114M322 114L308 134M322 114L345 116M322 114L285 132M300 114L338 97M300 114L317 100M300 114L322 114M300 114L285 132M300 114L279 118M300 114L263 133M308 134L322 114M308 134L345 116M308 134L285 132M308 134L294 157M308 134L331 138M308 134L271 153M345 116L360 97M345 116L384 100M345 116L322 114M345 116L308 134M345 116L331 138M345 116L370 121M285 132L322 114M285 132L300 114M285 132L308 134M285 132L271 153M285 132L263 133M285 132L248 152M294 157L308 134M294 157L331 138M294 157L271 153M294 157L282 182M294 157L318 162M294 157L258 177M331 138L308 134M331 138L345 116M331 138L294 157M331 138L318 162M331 138L370 121M331 138L356 143M271 153L308 134M271 153L285 132M271 153L294 157M271 153L258 177M271 153L248 152M271 153L235 174M282 182L294 157M282 182L318 162M282 182L258 177M282 182L270 209M282 182L305 187M282 182L247 203M318 162L294 157M318 162L331 138M318 162L282 182M318 162L305 187M318 162L356 143M318 162L342 167M258 177L294 157M258 177L271 153M258 177L282 182M258 177L247 203M258 177L235 174M258 177L224 199M270 209L282 182M270 209L305 187M270 209L247 203M270 209L259 237M270 209L293 214M270 209L236 232M305 187L282 182M305 187L318 162M305 187L270 209M305 187L293 214M305 187L342 167M305 187L329 192M247 203L282 182M247 203L258 177M247 203L270 209M247 203L236 232M247 203L224 199M247 203L213 226M259 237L270 209M259 237L293 214M259 237L236 232M259 237L248 267M259 237L282 241M259 237L226 262M293 214L270 209M293 214L305 187M293 214L259 237M293 214L282 241M293 214L329 192M293 214L317 218M236 232L270 209M236 232L247 203M236 232L259 237M236 232L226 262M236 232L213 226M236 232L203 256M248 267L259 237M248 267L282 241M248 267L226 262M248 267L238 299M248 267L270 270M248 267L216 294M282 241L259 237M282 241L293 214M282 241L248 267M282 241L270 270M282 241L317 218M282 241L304 244M226 262L259 237M226 262L236 232M226 262L248 267M226 262L216 294M226 262L203 256M226 262L195 287M238 299L248 267M238 299L270 270M238 299L216 294M238 299L227 332M238 299L258 300M238 299L207 327M270 270L248 267M270 270L282 241M270 270L238 299M270 270L258 300M270 270L304 244M270 270L291 270M216 294L248 267M216 294L226 262M216 294L238 299M216 294L207 327M216 294L195 287M216 294L186 320M227 332L238 299M227 332L258 300M227 332L207 327M227 332L217 367M227 332L246 330M227 332L198 363M258 300L238 299M258 300L270 270M258 300L227 332M258 300L246 330M258 300L278 296M258 300L291 270M207 327L238 299M207 327L216 294M207 327L227 332M207 327L198 363M207 327L179 356M207 327L186 320M217 367L227 332M217 367L246 330M217 367L198 363M217 367L204 408M217 367L233 359M217 367L190 401M246 330L227 332M246 330L258 300M246 330L217 367M246 330L233 359M246 330L264 320M246 330L278 296M198 363L227 332M198 363L207 327M198 363L217 367M198 363L190 401M198 363L172 393M198 363L179 356M204 408L217 367M204 408L233 359M204 408L190 401M204 408L181 444M204 408L185 461M233 359L217 367M233 359L246 330M233 359L204 408M233 359L264 320M190 401L217 367M190 401L198 363M190 401L204 408M190 401L181 444M190 401L172 393M190 401L166 432M181 444L204 408M181 444L190 401M181 444L185 461M181 444L166 432M181 444L160 474M181 444L172 490M185 461L204 408M185 461L181 444M185 461L172 490M185 461L176 509M264 320L246 330M264 320L233 359M264 320L297 287M264 320L278 296M297 287L264 320M297 287L278 296M297 287L332 259M297 287L312 267M278 296L258 300M278 296L246 330M278 296L264 320M278 296L297 287M278 296L312 267M278 296L291 270M332 259L297 287M332 259L312 267M332 259L368 235M332 259L348 241M312 267L297 287M312 267L278 296M312 267L332 259M312 267L348 241M312 267L291 270M312 267L326 244M368 235L332 259M368 235L348 241M368 235L407 215M368 235L386 220M348 241L332 259M348 241L312 267M348 241L368 235M348 241L386 220M348 241L326 244M348 241L363 221M407 215L368 235M407 215L386 220M407 215L447 200M407 215L425 203M386 220L368 235M386 220L348 241M386 220L407 215M386 220L425 203M386 220L363 221M386 220L401 202M447 200L407 215M447 200L425 203M447 200L489 190M447 200L466 190M425 203L407 215M425 203L386 220M425 203L447 200M425 203L466 190M425 203L401 202M425 203L441 187M489 190L447 200M489 190L466 190M489 190L533 185M489 190L508 182M466 190L447 200M466 190L425 203M466 190L489 190M466 190L508 182M466 190L441 187M466 190L483 176M533 185L489 190M533 185L508 182M533 185L579 184M533 185L553 178M508 182L489 190M508 182L466 190M508 182L533 185M508 182L553 178M508 182L483 176M508 182L526 169M579 184L598 179M579 184L628 190M579 184L533 185M579 184L553 178M553 178L569 167M553 178L598 179M553 178L533 185M553 178L508 182M553 178L579 184M553 178L526 169M370 121L384 100M370 121L408 106M370 121L345 116M370 121L331 138M370 121L356 143M370 121L394 127M356 143L331 138M356 143L318 162M356 143L370 121M356 143L342 167M356 143L394 127M356 143L381 149M342 167L318 162M342 167L305 187M342 167L356 143M342 167L329 192M342 167L381 149M342 167L367 173M329 192L305 187M329 192L293 214M329 192L342 167M329 192L317 218M329 192L367 173M329 192L354 196M317 218L293 214M317 218L282 241M317 218L329 192M317 218L304 244M317 218L354 196M317 218L340 220M304 244L282 241M304 244L270 270M304 244L317 218M304 244L291 270M304 244L340 220M304 244L326 244M291 270L270 270M291 270L258 300M291 270L278 296M291 270L312 267M291 270L304 244M291 270L326 244M394 127L408 106M394 127L433 113M394 127L370 121M394 127L356 143M394 127L381 149M394 127L420 134M381 149L356 143M381 149L342 167M381 149L394 127M381 149L367 173M381 149L420 134M381 149L406 156M367 173L342 167M367 173L329 192M367 173L381 149M367 173L354 196M367 173L406 156M367 173L392 178M354 196L329 192M354 196L317 218M354 196L367 173M354 196L340 220M354 196L392 178M354 196L378 200M340 220L317 218M340 220L304 244M340 220L354 196M340 220L326 244M340 220L378 200M340 220L363 221M326 244L312 267M326 244L348 241M326 244L304 244M326 244L291 270M326 244L340 220M326 244L363 221M420 134L433 113M420 134L459 121M420 134L394 127M420 134L381 149M420 134L406 156M420 134L445 142M406 156L381 149M406 156L367 173M406 156L420 134M406 156L392 178M406 156L445 142M406 156L431 163M392 178L367 173M392 178L354 196M392 178L406 156M392 178L378 200M392 178L431 163M392 178L417 183M378 200L354 196M378 200L340 220M378 200L392 178M378 200L363 221M378 200L417 183M378 200L401 202M363 221L348 241M363 221L386 220M363 221L340 220M363 221L326 244M363 221L378 200M363 221L401 202M445 142L459 121M445 142L486 131M445 142L420 134M445 142L406 156M445 142L431 163M445 142L472 151M431 163L406 156M431 163L392 178M431 163L445 142M431 163L417 183M431 163L472 151M431 163L457 169M417 183L392 178M417 183L378 200M417 183L431 163M417 183L401 202M417 183L457 169M417 183L441 187M401 202L386 220M401 202L425 203M401 202L378 200M401 202L363 221M401 202L417 183M401 202L441 187M472 151L486 131M472 151L513 142M472 151L445 142M472 151L431 163M472 151L457 169M472 151L499 160M457 169L431 163M457 169L417 183M457 169L472 151M457 169L441 187M457 169L499 160M457 169L483 176M441 187L425 203M441 187L466 190M441 187L417 183M441 187L401 202M441 187L457 169M441 187L483 176M499 160L513 142M499 160L541 154M499 160L472 151M499 160L457 169M499 160L483 176M499 160L526 169M483 176L466 190M483 176L508 182M483 176L457 169M483 176L441 187M483 176L499 160M483 176L526 169M526 169L541 154M526 169L569 167M526 169L508 182M526 169L553 178M526 169L499 160M526 169L483 176M279 118L317 100M279 118L300 114M279 118L243 138M279 118L263 133M243 138L279 118M243 138L263 133M243 138L208 158M243 138L227 153M263 133L300 114M263 133L285 132M263 133L279 118M263 133L243 138M263 133L227 153M263 133L248 152M208 158L243 138M208 158L227 153M208 158L174 179M208 158L193 173M227 153L243 138M227 153L263 133M227 153L208 158M227 153L193 173M227 153L248 152M227 153L214 172M174 179L208 158M174 179L193 173M174 179L142 200M174 179L160 195M193 173L208 158M193 173L227 153M193 173L174 179M193 173L160 195M193 173L214 172M193 173L180 193M142 200L174 179M142 200L160 195M142 200L113 221M142 200L130 216M160 195L174 179M160 195L193 173M160 195L142 200M160 195L130 216M160 195L180 193M160 195L149 215M113 221L142 200M113 221L130 216M113 221L85 242M113 221L101 238M130 216L142 200M130 216L160 195M130 216L113 221M130 216L101 238M130 216L149 215M130 216L119 237M85 242L113 221M85 242L101 238M85 242L60 262M85 242L75 259M101 238L113 221M101 238L130 216M101 238L85 242M101 238L75 259M101 238L119 237M101 238L92 260M60 262L85 242M60 262L75 259M60 262L38 282M60 262L51 280M75 259L85 242M75 259L101 238M75 259L60 262M75 259L51 280M75 259L92 260M75 259L67 281M38 282L60 262M38 282L51 280M38 282L20 299M38 282L31 299M51 280L60 262M51 280L75 259M51 280L38 282M51 280L31 299M51 280L45 303M51 280L67 281M20 299L38 282M20 299L31 299M20 299L7 312M20 299L15 317M31 299L38 282M31 299L51 280M31 299L20 299M31 299L15 317M31 299L27 322M31 299L45 303M7 312L20 299M7 312L15 317M7 312L4 331M15 317L20 299M15 317L31 299M15 317L7 312M15 317L4 331M15 317L27 322M15 317L12 341M4 331L7 312M4 331L15 317M4 331L12 341M4 331L3 357M27 322L31 299M27 322L15 317M27 322L12 341M27 322L41 329M27 322L45 303M27 322L23 350M12 341L15 317M12 341L4 331M12 341L27 322M12 341L23 350M12 341L3 357M12 341L10 369M41 329L27 322M41 329L45 303M41 329L23 350M41 329L57 337M41 329L61 308M41 329L37 359M45 303L51 280M45 303L31 299M45 303L27 322M45 303L41 329M45 303L61 308M45 303L67 281M23 350L27 322M23 350L12 341M23 350L41 329M23 350L37 359M23 350L10 369M23 350L21 381M57 337L41 329M57 337L61 308M57 337L37 359M57 337L75 346M57 337L79 314M57 337L54 369M61 308L41 329M61 308L45 303M61 308L57 337M61 308L79 314M61 308L67 281M61 308L85 285M37 359L41 329M37 359L23 350M37 359L57 337M37 359L54 369M37 359L21 381M37 359L35 392M75 346L57 337M75 346L79 314M75 346L54 369M75 346L93 355M75 346L98 322M75 346L71 379M79 314L57 337M79 314L61 308M79 314L75 346M79 314L98 322M79 314L85 285M79 314L104 291M54 369L57 337M54 369L37 359M54 369L75 346M54 369L71 379M54 369L35 392M54 369L51 404M93 355L75 346M93 355L98 322M93 355L71 379M93 355L113 364M93 355L117 330M93 355L90 390M98 322L75 346M98 322L79 314M98 322L93 355M98 322L117 330M98 322L104 291M98 322L124 298M71 379L75 346M71 379L54 369M71 379L93 355M71 379L90 390M71 379L51 404M71 379L69 415M113 364L93 355M113 364L117 330M113 364L90 390M113 364L133 374M113 364L138 338M113 364L109 401M117 330L93 355M117 330L98 322M117 330L113 364M117 330L138 338M117 330L124 298M117 330L144 305M90 390L93 355M90 390L71 379M90 390L113 364M90 390L109 401M90 390L69 415M90 390L88 427M133 374L113 364M133 374L138 338M133 374L109 401M133 374L153 384M133 374L158 347M133 374L129 411M138 338L113 364M138 338L117 330M138 338L133 374M138 338L158 347M138 338L144 305M138 338L165 313M109 401L113 364M109 401L90 390M109 401L133 374M109 401L129 411M109 401L88 427M109 401L107 438M153 384L133 374M153 384L158 347M153 384L129 411M153 384L172 393M153 384L179 356M153 384L148 422M158 347L133 374M158 347L138 338M158 347L153 384M158 347L179 356M158 347L165 313M158 347L186 320M129 411L133 374M129 411L109 401M129 411L153 384M129 411L148 422M129 411L107 438M129 411L126 450M172 393L198 363M172 393L190 401M172 393L153 384M172 393L179 356M172 393L148 422M172 393L166 432M179 356L207 327M179 356L198 363M179 356L153 384M179 356L158 347M179 356L172 393M179 356L186 320M148 422L153 384M148 422L129 411M148 422L172 393M148 422L166 432M148 422L144 462M148 422L126 450M166 432L190 401M166 432L181 444M166 432L172 393M166 432L148 422M166 432L160 474M166 432L144 462M248 152L285 132M248 152L271 153M248 152L263 133M248 152L227 153M248 152L214 172M248 152L235 174M214 172L227 153M214 172L193 173M214 172L248 152M214 172L180 193M214 172L235 174M214 172L202 195M180 193L193 173M180 193L160 195M180 193L214 172M180 193L149 215M180 193L202 195M180 193L169 217M149 215L160 195M149 215L130 216M149 215L180 193M149 215L119 237M149 215L169 217M149 215L139 240M119 237L130 216M119 237L101 238M119 237L149 215M119 237L92 260M119 237L139 240M119 237L111 263M92 260L101 238M92 260L75 259M92 260L119 237M92 260L67 281M92 260L111 263M92 260L85 285M67 281L75 259M67 281L51 280M67 281L45 303M67 281L61 308M67 281L92 260M67 281L85 285M235 174L271 153M235 174L258 177M235 174L248 152M235 174L214 172M235 174L202 195M235 174L224 199M202 195L214 172M202 195L180 193M202 195L235 174M202 195L169 217M202 195L224 199M202 195L191 221M169 217L180 193M169 217L149 215M169 217L202 195M169 217L139 240M169 217L191 221M169 217L160 244M139 240L149 215M139 240L119 237M139 240L169 217M139 240L111 263M139 240L160 244M139 240L131 267M111 263L119 237M111 263L92 260M111 263L139 240M111 263L85 285M111 263L131 267M111 263L104 291M85 285L61 308M85 285L79 314M85 285L92 260M85 285L67 281M85 285L111 263M85 285L104 291M224 199L258 177M224 199L247 203M224 199L235 174M224 199L202 195M224 199L191 221M224 199L213 226M191 221L202 195M191 221L169 217M191 221L224 199M191 221L160 244M191 221L213 226M191 221L181 250M160 244L169 217M160 244L139 240M160 244L191 221M160 244L131 267M160 244L181 250M160 244L151 273M131 267L139 240M131 267L111 263M131 267L160 244M131 267L104 291M131 267L151 273M131 267L124 298M104 291L79 314M104 291L98 322M104 291L111 263M104 291L85 285M104 291L131 267M104 291L124 298M213 226L247 203M213 226L236 232M213 226L224 199M213 226L191 221M213 226L181 250M213 226L203 256M181 250L191 221M181 250L160 244M181 250L213 226M181 250L151 273M181 250L203 256M181 250L173 280M151 273L160 244M151 273L131 267M151 273L181 250M151 273L124 298M151 273L173 280M151 273L144 305M124 298L98 322M124 298L117 330M124 298L131 267M124 298L104 291M124 298L151 273M124 298L144 305M203 256L236 232M203 256L226 262M203 256L213 226M203 256L181 250M203 256L173 280M203 256L195 287M173 280L181 250M173 280L151 273M173 280L203 256M173 280L144 305M173 280L195 287M173 280L165 313M144 305L117 330M144 305L138 338M144 305L151 273M144 305L124 298M144 305L173 280M144 305L165 313M195 287L226 262M195 287L216 294M195 287L203 256M195 287L173 280M195 287L165 313M195 287L186 320M165 313L138 338M165 313L158 347M165 313L173 280M165 313L144 305M165 313L195 287M165 313L186 320M186 320L216 294M186 320L207 327M186 320L158 347M186 320L179 356M186 320L195 287M186 320L165 313M3 357L4 331M3 357L12 341M3 357L3 387M3 357L10 369M3 387L3 357M3 387L10 369M3 387L4 420M3 387L10 401M10 369L12 341M10 369L23 350M10 369L3 357M10 369L3 387M10 369L10 401M10 369L21 381M4 420L3 387M4 420L10 401M4 420L7 455M4 420L11 435M10 401L3 387M10 401L10 369M10 401L4 420M10 401L11 435M10 401L21 381M10 401L21 414M7 455L4 420M7 455L11 435M7 455L10 492M7 455L14 472M11 435L4 420M11 435L10 401M11 435L7 455M11 435L14 472M11 435L21 414M11 435L22 450M10 492L7 455M10 492L14 472M10 492L15 530M10 492L17 509M14 472L7 455M14 472L11 435M14 472L10 492M14 472L17 509M14 472L22 450M14 472L25 487M15 530L10 492M15 530L17 509M15 530L22 569M15 530L23 548M17 509L10 492M17 509L14 472M17 509L15 530M17 509L23 548M17 509L25 487M17 509L29 526M22 569L15 530M22 569L23 548M22 569L29 609M22 569L30 587M23 548L15 530M23 548L17 509M23 548L22 569M23 548L30 587M23 548L29 526M23 548L34 565M29 609L22 569M29 609L30 587M29 609L39 648M29 609L39 627M30 587L22 569M30 587L23 548M30 587L29 609M30 587L39 627M30 587L34 565M30 587L42 604M39 648L29 609M39 648L39 627M39 648L51 687M39 648L50 666M39 627L29 609M39 627L30 587M39 627L39 648M39 627L50 666M39 627L52 644M39 627L42 604M51 687L39 648M51 687L50 666M51 687L64 725M51 687L62 705M50 666L39 648M50 666L39 627M50 666L51 687M50 666L62 705M50 666L64 683M50 666L52 644M64 725L51 687M64 725L62 705M64 725L76 742M64 725L79 762M62 705L51 687M62 705L50 666M62 705L64 725M62 705L76 742M62 705L64 683M62 705L77 721M76 742L64 725M76 742L62 705M76 742L79 762M76 742L77 721M76 742L92 758M76 742L91 779M79 762L64 725M79 762L76 742M79 762L91 779M79 762L94 800M64 683L50 666M64 683L62 705M64 683L77 721M64 683L68 659M64 683L52 644M64 683L80 698M77 721L62 705M77 721L76 742M77 721L64 683M77 721L80 698M77 721L92 758M77 721L95 735M68 659L64 683M68 659L52 644M68 659L80 698M68 659L76 635M68 659L58 620M68 659L87 675M52 644L39 627M52 644L50 666M52 644L64 683M52 644L68 659M52 644L58 620M52 644L42 604M80 698L64 683M80 698L77 721M80 698L68 659M80 698L87 675M80 698L95 735M80 698L99 713M76 635L68 659M76 635L58 620M76 635L87 675M76 635L86 610M76 635L67 596M76 635L95 650M58 620L68 659M58 620L52 644M58 620L76 635M58 620L67 596M58 620L42 604M58 620L49 581M87 675L68 659M87 675L80 698M87 675L76 635M87 675L95 650M87 675L106 689M87 675L99 713M86 610L76 635M86 610L67 596M86 610L95 650M86 610L97 585M86 610L78 570M86 610L105 625M67 596L76 635M67 596L58 620M67 596L86 610M67 596L78 570M67 596L49 581M67 596L60 556M95 650L76 635M95 650L87 675M95 650L86 610M95 650L105 625M95 650L115 665M95 650L106 689M97 585L86 610M97 585L78 570M97 585L105 625M97 585L111 558M97 585L92 544M97 585L116 599M78 570L86 610M78 570L67 596M78 570L97 585M78 570L92 544M78 570L60 556M78 570L73 531M105 625L86 610M105 625L95 650M105 625L97 585M105 625L116 599M105 625L124 639M105 625L115 665M111 558L97 585M111 558L92 544M111 558L116 599M111 558L126 531M111 558L107 518M111 558L129 572M92 544L97 585M92 544L78 570M92 544L111 558M92 544L107 518M92 544L73 531M92 544L88 505M116 599L97 585M116 599L105 625M116 599L111 558M116 599L129 572M116 599L134 614M116 599L124 639M126 531L111 558M126 531L107 518M126 531L129 572M126 531L142 503M126 531L125 490M126 531L143 545M107 518L111 558M107 518L92 544M107 518L126 531M107 518L125 490M107 518L88 505M107 518L106 478M129 572L111 558M129 572L116 599M129 572L126 531M129 572L143 545M129 572L145 588M129 572L134 614M142 503L126 531M142 503L125 490M142 503L143 545M142 503L160 474M142 503L144 462M142 503L157 518M125 490L126 531M125 490L107 518M125 490L142 503M125 490L144 462M125 490L106 478M125 490L126 450M143 545L126 531M143 545L129 572M143 545L142 503M143 545L157 518M143 545L157 561M143 545L145 588M160 474L181 444M160 474L166 432M160 474L142 503M160 474L144 462M160 474L157 518M160 474L172 490M144 462L148 422M144 462L166 432M144 462L142 503M144 462L125 490M144 462L160 474M144 462L126 450M157 518L142 503M157 518L143 545M157 518L160 474M157 518L172 490M157 518L167 535M157 518L157 561M172 490L181 444M172 490L185 461M172 490L160 474M172 490L157 518M172 490L176 509M172 490L167 535M21 381L23 350M21 381L37 359M21 381L10 369M21 381L10 401M21 381L21 414M21 381L35 392M21 414L10 401M21 414L11 435M21 414L21 381M21 414L22 450M21 414L35 392M21 414L35 427M22 450L11 435M22 450L14 472M22 450L21 414M22 450L25 487M22 450L35 427M22 450L36 464M25 487L14 472M25 487L17 509M25 487L22 450M25 487L29 526M25 487L36 464M25 487L39 502M29 526L17 509M29 526L23 548M29 526L25 487M29 526L34 565M29 526L39 502M29 526L43 541M34 565L23 548M34 565L30 587M34 565L29 526M34 565L42 604M34 565L43 541M34 565L49 581M42 604L30 587M42 604L39 627M42 604L52 644M42 604L58 620M42 604L34 565M42 604L49 581M35 392L37 359M35 392L54 369M35 392L21 381M35 392L21 414M35 392L35 427M35 392L51 404M35 427L21 414M35 427L22 450M35 427L35 392M35 427L36 464M35 427L51 404M35 427L51 440M36 464L22 450M36 464L25 487M36 464L35 427M36 464L39 502M36 464L51 440M36 464L52 478M39 502L25 487M39 502L29 526M39 502L36 464M39 502L43 541M39 502L52 478M39 502L55 517M43 541L29 526M43 541L34 565M43 541L39 502M43 541L49 581M43 541L55 517M43 541L60 556M49 581L58 620M49 581L67 596M49 581L34 565M49 581L42 604M49 581L43 541M49 581L60 556M51 404L54 369M51 404L71 379M51 404L35 392M51 404L35 427M51 404L51 440M51 404L69 415M51 440L35 427M51 440L36 464M51 440L51 404M51 440L52 478M51 440L69 415M51 440L69 453M52 478L36 464M52 478L39 502M52 478L51 440M52 478L55 517M52 478L69 453M52 478L70 491M55 517L39 502M55 517L43 541M55 517L52 478M55 517L60 556M55 517L70 491M55 517L73 531M60 556L67 596M60 556L78 570M60 556L43 541M60 556L49 581M60 556L55 517M60 556L73 531M69 415L71 379M69 415L90 390M69 415L51 404M69 415L51 440M69 415L69 453M69 415L88 427M69 453L51 440M69 453L52 478M69 453L69 415M69 453L70 491M69 453L88 427M69 453L87 465M70 491L52 478M70 491L55 517M70 491L69 453M70 491L73 531M70 491L87 465M70 491L88 505M73 531L78 570M73 531L92 544M73 531L55 517M73 531L60 556M73 531L70 491M73 531L88 505M88 427L90 390M88 427L109 401M88 427L69 415M88 427L69 453M88 427L87 465M88 427L107 438M87 465L69 453M87 465L70 491M87 465L88 427M87 465L88 505M87 465L107 438M87 465L106 478M88 505L92 544M88 505L107 518M88 505L70 491M88 505L73 531M88 505L87 465M88 505L106 478M107 438L109 401M107 438L129 411M107 438L88 427M107 438L87 465M107 438L106 478M107 438L126 450M106 478L107 518M106 478L125 490M106 478L87 465M106 478L88 505M106 478L107 438M106 478L126 450M126 450L129 411M126 450L148 422M126 450L125 490M126 450L144 462M126 450L107 438M126 450L106 478M92 758L76 742M92 758L77 721M92 758L91 779M92 758L111 772M92 758L95 735M92 758L108 795M91 779L76 742M91 779L79 762M91 779L92 758M91 779L108 795M91 779L94 800M91 779L108 816M111 772L92 758M111 772L95 735M111 772L108 795M111 772L132 786M111 772L115 750M111 772L128 809M95 735L77 721M95 735L80 698M95 735L92 758M95 735L111 772M95 735L115 750M95 735L99 713M108 795L92 758M108 795L91 779M108 795L111 772M108 795L128 809M108 795L108 816M108 795L126 831M132 786L111 772M132 786L115 750M132 786L128 809M132 786L156 799M132 786L137 764M132 786L151 822M115 750L111 772M115 750L95 735M115 750L132 786M115 750L137 764M115 750L99 713M115 750L120 727M128 809L111 772M128 809L108 795M128 809L132 786M128 809L151 822M128 809L147 844M128 809L126 831M156 799L132 786M156 799L137 764M156 799L151 822M156 799L182 812M156 799L161 777M156 799L177 834M137 764L132 786M137 764L115 750M137 764L156 799M137 764L161 777M137 764L120 727M137 764L143 741M151 822L132 786M151 822L128 809M151 822L156 799M151 822L177 834M151 822L172 857M151 822L147 844M182 812L156 799M182 812L161 777M182 812L177 834M182 812L210 823M182 812L187 789M182 812L205 846M161 777L156 799M161 777L137 764M161 777L182 812M161 777L187 789M161 777L143 741M161 777L167 754M177 834L156 799M177 834L151 822M177 834L182 812M177 834L205 846M177 834L199 868M177 834L172 857M210 823L182 812M210 823L187 789M210 823L205 846M210 823L240 835M210 823L215 802M210 823L235 856M187 789L182 812M187 789L161 777M187 789L210 823M187 789L215 802M187 789L167 754M187 789L191 767M205 846L182 812M205 846L177 834M205 846L210 823M205 846L235 856M205 846L229 878M205 846L199 868M240 835L210 823M240 835L215 802M240 835L235 856M240 835L272 845M240 835L243 814M240 835L267 866M215 802L210 823M215 802L187 789M215 802L240 835M215 802L243 814M215 802L191 767M215 802L217 780M235 856L210 823M235 856L205 846M235 856L240 835M235 856L267 866M235 856L261 887M235 856L229 878M272 845L240 835M272 845L243 814M272 845L267 866M272 845L305 855M272 845L273 825M272 845L301 875M243 814L240 835M243 814L215 802M243 814L272 845M243 814L273 825M243 814L217 780M243 814L243 793M267 866L240 835M267 866L235 856M267 866L272 845M267 866L301 875M267 866L295 895M267 866L261 887M305 855L272 845M305 855L273 825M305 855L301 875M305 855L341 866M305 855L303 837M305 855L338 883M273 825L272 845M273 825L243 814M273 825L305 855M273 825L303 837M273 825L269 806M273 825L243 793M301 875L272 845M301 875L267 866M301 875L305 855M301 875L338 883M301 875L331 902M301 875L295 895M341 866L305 855M341 866L303 837M341 866L338 883M341 866L383 878M341 866L333 850M341 866L377 892M303 837L305 855M303 837L273 825M303 837L341 866M303 837L333 850M303 837L293 820M303 837L269 806M338 883L305 855M338 883L301 875M338 883L341 866M338 883L377 892M338 883L369 909M338 883L331 902M383 878L341 866M383 878L333 850M383 878L377 892M383 878L421 900M383 878L438 896M333 850L341 866M333 850L303 837M333 850L383 878M333 850L293 820M377 892L341 866M377 892L338 883M377 892L383 878M377 892L421 900M377 892L369 909M377 892L410 915M421 900L383 878M421 900L377 892M421 900L438 896M421 900L410 915M421 900L453 920M421 900L468 908M438 896L383 878M438 896L421 900M438 896L468 908M438 896L488 904M293 820L303 837M293 820L333 850M293 820L259 788M293 820L269 806M259 788L293 820M259 788L269 806M259 788L231 754M259 788L239 773M269 806L273 825M269 806L303 837M269 806L293 820M269 806L259 788M269 806L239 773M269 806L243 793M231 754L259 788M231 754L239 773M231 754L209 719M231 754L215 738M239 773L259 788M239 773L269 806M239 773L231 754M239 773L215 738M239 773L217 759M239 773L243 793M209 719L231 754M209 719L215 738M209 719L193 680M209 719L196 701M215 738L231 754M215 738L239 773M215 738L209 719M215 738L196 701M215 738L196 723M215 738L217 759M193 680L209 719M193 680L196 701M193 680L182 640M193 680L182 662M196 701L209 719M196 701L215 738M196 701L193 680M196 701L182 662M196 701L180 685M196 701L196 723M182 640L193 680M182 640L182 662M182 640L175 598M182 640L173 621M182 662L193 680M182 662L196 701M182 662L182 640M182 662L173 621M182 662L168 645M182 662L180 685M175 598L182 640M175 598L173 621M175 598L173 555M175 598L168 579M173 621L182 640M173 621L182 662M173 621L175 598M173 621L168 579M173 621L160 604M173 621L168 645M173 555L175 598M173 555L168 579M173 555L176 509M173 555L167 535M168 579L175 598M168 579L173 621M168 579L173 555M168 579L167 535M168 579L157 561M168 579L160 604M176 509L185 461M176 509L172 490M176 509L173 555M176 509L167 535M167 535L157 518M167 535L172 490M167 535L173 555M167 535L168 579M167 535L176 509M167 535L157 561M157 561L143 545M157 561L157 518M157 561L168 579M157 561L167 535M157 561L145 588M157 561L160 604M145 588L129 572M145 588L143 545M145 588L157 561M145 588L134 614M145 588L160 604M145 588L152 629M134 614L116 599M134 614L129 572M134 614L145 588M134 614L124 639M134 614L152 629M134 614L143 654M124 639L105 625M124 639L116 599M124 639L134 614M124 639L115 665M124 639L143 654M124 639L135 679M115 665L95 650M115 665L105 625M115 665L124 639M115 665L106 689M115 665L135 679M115 665L127 703M106 689L87 675M106 689L95 650M106 689L115 665M106 689L99 713M106 689L127 703M106 689L120 727M99 713L80 698M99 713L87 675M99 713L95 735M99 713L115 750M99 713L106 689M99 713L120 727M160 604L173 621M160 604L168 579M160 604L157 561M160 604L145 588M160 604L152 629M160 604L168 645M152 629L145 588M152 629L134 614M152 629L160 604M152 629L143 654M152 629L168 645M152 629L162 669M143 654L134 614M143 654L124 639M143 654L152 629M143 654L135 679M143 654L162 669M143 654L156 694M135 679L124 639M135 679L115 665M135 679L143 654M135 679L127 703M135 679L156 694M135 679L149 718M127 703L115 665M127 703L106 689M127 703L135 679M127 703L120 727M127 703L149 718M127 703L143 741M120 727L115 750M120 727L137 764M120 727L106 689M120 727L99 713M120 727L127 703M120 727L143 741M168 645L182 662M168 645L173 621M168 645L160 604M168 645L152 629M168 645L162 669M168 645L180 685M162 669L152 629M162 669L143 654M162 669L168 645M162 669L156 694M162 669L180 685M162 669L176 708M156 694L143 654M156 694L135 679M156 694L162 669M156 694L149 718M156 694L176 708M156 694L172 732M149 718L135 679M149 718L127 703M149 718L156 694M149 718L143 741M149 718L172 732M149 718L167 754M143 741L137 764M143 741L161 777M143 741L127 703M143 741L120 727M143 741L149 718M143 741L167 754M180 685L196 701M180 685L182 662M180 685L168 645M180 685L162 669M180 685L176 708M180 685L196 723M176 708L162 669M176 708L156 694M176 708L180 685M176 708L172 732M176 708L196 723M176 708L195 745M172 732L156 694M172 732L149 718M172 732L176 708M172 732L167 754M172 732L195 745M172 732L191 767M167 754L161 777M167 754L187 789M167 754L149 718M167 754L143 741M167 754L172 732M167 754L191 767M196 723L215 738M196 723L196 701M196 723L180 685M196 723L176 708M196 723L195 745M196 723L217 759M195 745L176 708M195 745L172 732M195 745L196 723M195 745L191 767M195 745L217 759M195 745L217 780M191 767L187 789M191 767L215 802M191 767L172 732M191 767L167 754M191 767L195 745M191 767L217 780M217 759L239 773M217 759L215 738M217 759L196 723M217 759L195 745M217 759L217 780M217 759L243 793M217 780L215 802M217 780L243 814M217 780L195 745M217 780L191 767M217 780L217 759M217 780L243 793M243 793L243 814M243 793L273 825M243 793L269 806M243 793L239 773M243 793L217 759M243 793L217 780M94 800L79 762M94 800L91 779M94 800L112 836M94 800L108 816M112 836L94 800M112 836L108 816M112 836L131 872M112 836L126 852M108 816L91 779M108 816L108 795M108 816L94 800M108 816L112 836M108 816L126 852M108 816L126 831M131 872L112 836M131 872L126 852M131 872L152 906M131 872L146 887M126 852L112 836M126 852L108 816M126 852L131 872M126 852L146 887M126 852L126 831M126 852L145 866M152 906L131 872M152 906L146 887M152 906L173 938M152 906L168 920M146 887L131 872M146 887L126 852M146 887L152 906M146 887L168 920M146 887L145 866M146 887L166 900M173 938L152 906M173 938L168 920M173 938L195 968M173 938L190 951M168 920L152 906M168 920L146 887M168 920L173 938M168 920L190 951M168 920L166 900M168 920L188 932M195 968L173 938M195 968L190 951M195 968L217 996M195 968L212 980M190 951L173 938M190 951L168 920M190 951L195 968M190 951L212 980M190 951L188 932M190 951L211 962M217 996L195 968M217 996L212 980M217 996L238 1022M217 996L234 1007M212 980L195 968M212 980L190 951M212 980L217 996M212 980L234 1007M212 980L211 962M212 980L234 989M238 1022L217 996M238 1022L234 1007M238 1022L258 1045M238 1022L256 1031M234 1007L217 996M234 1007L212 980M234 1007L238 1022M234 1007L256 1031M234 1007L234 989M234 1007L257 1014M258 1045L238 1022M258 1045L256 1031M258 1045L277 1063M258 1045L277 1051M256 1031L238 1022M256 1031L234 1007M256 1031L258 1045M256 1031L277 1051M256 1031L280 1036M256 1031L257 1014M277 1063L258 1045M277 1063L277 1051M277 1063L292 1077M277 1063L296 1068M277 1051L258 1045M277 1051L256 1031M277 1051L277 1063M277 1051L296 1068M277 1051L301 1055M277 1051L280 1036M292 1077L277 1063M292 1077L296 1068M292 1077L312 1078M296 1068L277 1063M296 1068L277 1051M296 1068L292 1077M296 1068L312 1078M296 1068L301 1055M296 1068L321 1070M312 1078L292 1077M312 1078L296 1068M312 1078L321 1070M312 1078L338 1080M301 1055L277 1051M301 1055L296 1068M301 1055L321 1070M301 1055L308 1040M301 1055L280 1036M301 1055L330 1058M321 1070L296 1068M321 1070L312 1078M321 1070L301 1055M321 1070L330 1058M321 1070L338 1080M321 1070L350 1072M308 1040L301 1055M308 1040L280 1036M308 1040L330 1058M308 1040L316 1024M308 1040L285 1020M308 1040L339 1043M280 1036L256 1031M280 1036L277 1051M280 1036L301 1055M280 1036L308 1040M280 1036L285 1020M280 1036L257 1014M330 1058L301 1055M330 1058L321 1070M330 1058L308 1040M330 1058L339 1043M330 1058L350 1072M330 1058L362 1060M316 1024L308 1040M316 1024L285 1020M316 1024L339 1043M316 1024L324 1006M316 1024L291 1002M316 1024L349 1027M285 1020L308 1040M285 1020L280 1036M285 1020L316 1024M285 1020L291 1002M285 1020L261 996M285 1020L257 1014M339 1043L308 1040M339 1043L330 1058M339 1043L316 1024M339 1043L349 1027M339 1043L373 1045M339 1043L362 1060M324 1006L316 1024M324 1006L291 1002M324 1006L349 1027M324 1006L333 987M324 1006L298 982M324 1006L359 1009M291 1002L316 1024M291 1002L285 1020M291 1002L324 1006M291 1002L298 982M291 1002L266 977M291 1002L261 996M349 1027L316 1024M349 1027L339 1043M349 1027L324 1006M349 1027L359 1009M349 1027L384 1029M349 1027L373 1045M333 987L324 1006M333 987L298 982M333 987L359 1009M333 987L342 967M333 987L306 963M333 987L369 990M298 982L324 1006M298 982L291 1002M298 982L333 987M298 982L306 963M298 982L273 957M298 982L266 977M359 1009L324 1006M359 1009L349 1027M359 1009L333 987M359 1009L369 990M359 1009L395 1011M359 1009L384 1029M342 967L333 987M342 967L306 963M342 967L369 990M342 967L351 947M342 967L315 942M342 967L379 971M306 963L333 987M306 963L298 982M306 963L342 967M306 963L315 942M306 963L280 937M306 963L273 957M369 990L333 987M369 990L359 1009M369 990L342 967M369 990L379 971M369 990L406 992M369 990L395 1011M351 947L342 967M351 947L315 942M351 947L379 971M351 947L360 928M351 947L323 922M351 947L389 951M315 942L342 967M315 942L306 963M315 942L351 947M315 942L323 922M315 942L287 916M315 942L280 937M379 971L342 967M379 971L369 990M379 971L351 947M379 971L389 951M379 971L417 973M379 971L406 992M360 928L351 947M360 928L323 922M360 928L389 951M360 928L369 909M360 928L331 902M360 928L399 932M323 922L351 947M323 922L315 942M323 922L360 928M323 922L331 902M323 922L295 895M323 922L287 916M389 951L351 947M389 951L379 971M389 951L360 928M389 951L399 932M389 951L429 954M389 951L417 973M369 909L338 883M369 909L377 892M369 909L360 928M369 909L331 902M369 909L399 932M369 909L410 915M331 902L301 875M331 902L338 883M331 902L360 928M331 902L323 922M331 902L369 909M331 902L295 895M399 932L360 928M399 932L389 951M399 932L369 909M399 932L410 915M399 932L440 936M399 932L429 954M410 915L377 892M410 915L421 900M410 915L369 909M410 915L399 932M410 915L453 920M410 915L440 936M295 895L267 866M295 895L301 875M295 895L323 922M295 895L331 902M295 895L261 887M295 895L287 916M261 887L235 856M261 887L267 866M261 887L295 895M261 887L229 878M261 887L287 916M261 887L254 908M229 878L205 846M229 878L235 856M229 878L261 887M229 878L199 868M229 878L254 908M229 878L223 900M199 868L177 834M199 868L205 846M199 868L229 878M199 868L172 857M199 868L223 900M199 868L194 890M172 857L151 822M172 857L177 834M172 857L199 868M172 857L147 844M172 857L194 890M172 857L168 879M147 844L128 809M147 844L151 822M147 844L172 857M147 844L126 831M147 844L168 879M147 844L145 866M126 831L108 795M126 831L128 809M126 831L108 816M126 831L126 852M126 831L147 844M126 831L145 866M287 916L315 942M287 916L323 922M287 916L295 895M287 916L261 887M287 916L254 908M287 916L280 937M254 908L261 887M254 908L229 878M254 908L287 916M254 908L223 900M254 908L280 937M254 908L247 929M223 900L229 878M223 900L199 868M223 900L254 908M223 900L194 890M223 900L247 929M223 900L217 921M194 890L199 868M194 890L172 857M194 890L223 900M194 890L168 879M194 890L217 921M194 890L190 911M168 879L172 857M168 879L147 844M168 879L194 890M168 879L145 866M168 879L190 911M168 879L166 900M145 866L126 852M145 866L146 887M145 866L147 844M145 866L126 831M145 866L168 879M145 866L166 900M280 937L306 963M280 937L315 942M280 937L287 916M280 937L254 908M280 937L247 929M280 937L273 957M247 929L254 908M247 929L223 900M247 929L280 937M247 929L217 921M247 929L273 957M247 929L242 950M217 921L223 900M217 921L194 890M217 921L247 929M217 921L190 911M217 921L242 950M217 921L213 942M190 911L194 890M190 911L168 879M190 911L217 921M190 911L166 900M190 911L213 942M190 911L188 932M166 900L146 887M166 900L168 920M166 900L168 879M166 900L145 866M166 900L190 911M166 900L188 932M273 957L298 982M273 957L306 963M273 957L280 937M273 957L247 929M273 957L242 950M273 957L266 977M242 950L247 929M242 950L217 921M242 950L273 957M242 950L213 942M242 950L266 977M242 950L237 970M213 942L217 921M213 942L190 911M213 942L242 950M213 942L188 932M213 942L237 970M213 942L211 962M188 932L168 920M188 932L190 951M188 932L190 911M188 932L166 900M188 932L213 942M188 932L211 962M266 977L291 1002M266 977L298 982M266 977L273 957M266 977L242 950M266 977L237 970M266 977L261 996M237 970L242 950M237 970L213 942M237 970L266 977M237 970L211 962M237 970L261 996M237 970L234 989M211 962L190 951M211 962L212 980M211 962L213 942M211 962L188 932M211 962L237 970M211 962L234 989M261 996L285 1020M261 996L291 1002M261 996L266 977M261 996L237 970M261 996L234 989M261 996L257 1014M234 989L212 980M234 989L234 1007M234 989L237 970M234 989L211 962M234 989L261 996M234 989L257 1014M257 1014L234 1007M257 1014L256 1031M257 1014L280 1036M257 1014L285 1020M257 1014L261 996M257 1014L234 989M338 1080L312 1078M338 1080L321 1070M338 1080L368 1079M338 1080L350 1072M368 1079L338 1080M368 1079L350 1072M368 1079L402 1078M368 1079L382 1072M350 1072L321 1070M350 1072L330 1058M350 1072L338 1080M350 1072L368 1079M350 1072L382 1072M350 1072L362 1060M402 1078L368 1079M402 1078L382 1072M402 1078L437 1076M402 1078L417 1071M382 1072L368 1079M382 1072L350 1072M382 1072L402 1078M382 1072L417 1071M382 1072L362 1060M382 1072L396 1060M437 1076L402 1078M437 1076L417 1071M437 1076L474 1073M437 1076L454 1069M417 1071L402 1078M417 1071L382 1072M417 1071L437 1076M417 1071L454 1069M417 1071L396 1060M417 1071L432 1059M474 1073L437 1076M474 1073L454 1069M474 1073L513 1067M474 1073L492 1065M454 1069L437 1076M454 1069L417 1071M454 1069L474 1073M454 1069L492 1065M454 1069L432 1059M454 1069L469 1057M513 1067L474 1073M513 1067L492 1065M513 1067L553 1060M513 1067L532 1058M492 1065L474 1073M492 1065L454 1069M492 1065L513 1067M492 1065L532 1058M492 1065L469 1057M492 1065L508 1052M553 1060L513 1067M553 1060L532 1058M553 1060L594 1051M553 1060L572 1051M532 1058L513 1067M532 1058L492 1065M532 1058L553 1060M532 1058L572 1051M532 1058L508 1052M532 1058L548 1046M594 1051L553 1060M594 1051L572 1051M594 1051L635 1039M594 1051L613 1040M572 1051L553 1060M572 1051L532 1058M572 1051L594 1051M572 1051L613 1040M572 1051L548 1046M572 1051L589 1037M635 1039L594 1051M635 1039L613 1040M635 1039L675 1026M635 1039L653 1028M613 1040L594 1051M613 1040L572 1051M613 1040L635 1039M613 1040L653 1028M613 1040L630 1026M613 1040L589 1037M675 1026L635 1039M675 1026L653 1028M675 1026L716 1011M675 1026L694 1014M653 1028L635 1039M653 1028L613 1040M653 1028L675 1026M653 1028L694 1014M653 1028L670 1013M653 1028L630 1026M716 1011L675 1026M716 1011L694 1014M716 1011L734 998M716 1011L755 994M694 1014L675 1026M694 1014L653 1028M694 1014L716 1011M694 1014L734 998M694 1014L670 1013M694 1014L710 998M734 998L716 1011M734 998L694 1014M734 998L755 994M734 998L710 998M734 998L750 981M734 998L773 980M755 994L716 1011M755 994L734 998M755 994L773 980M755 994L794 976M670 1013L653 1028M670 1013L694 1014M670 1013L710 998M670 1013L646 1008M670 1013L630 1026M670 1013L686 994M710 998L694 1014M710 998L734 998M710 998L670 1013M710 998L686 994M710 998L750 981M710 998L726 979M646 1008L670 1013M646 1008L630 1026M646 1008L686 994M646 1008L620 1001M646 1008L605 1020M646 1008L661 989M630 1026L613 1040M630 1026L653 1028M630 1026L670 1013M630 1026L646 1008M630 1026L605 1020M630 1026L589 1037M686 994L670 1013M686 994L710 998M686 994L646 1008M686 994L661 989M686 994L726 979M686 994L701 974M620 1001L646 1008M620 1001L605 1020M620 1001L661 989M620 1001L594 992M620 1001L579 1011M620 1001L635 981M605 1020L646 1008M605 1020L630 1026M605 1020L620 1001M605 1020L579 1011M605 1020L564 1030M605 1020L589 1037M661 989L646 1008M661 989L686 994M661 989L620 1001M661 989L635 981M661 989L676 967M661 989L701 974M594 992L620 1001M594 992L579 1011M594 992L635 981M594 992L567 980M594 992L553 1000M594 992L609 971M579 1011L620 1001M579 1011L605 1020M579 1011L594 992M579 1011L553 1000M579 1011L539 1019M579 1011L564 1030M635 981L620 1001M635 981L661 989M635 981L594 992M635 981L609 971M635 981L650 959M635 981L676 967M567 980L594 992M567 980L553 1000M567 980L609 971M567 980L540 968M567 980L526 987M567 980L582 961M553 1000L594 992M553 1000L579 1011M553 1000L567 980M553 1000L526 987M553 1000L512 1006M553 1000L539 1019M609 971L594 992M609 971L635 981M609 971L567 980M609 971L582 961M609 971L624 951M609 971L650 959M540 968L567 980M540 968L526 987M540 968L582 961M540 968L512 953M540 968L498 972M540 968L554 949M526 987L567 980M526 987L553 1000M526 987L540 968M526 987L498 972M526 987L485 991M526 987L512 1006M582 961L567 980M582 961L609 971M582 961L540 968M582 961L554 949M582 961L597 941M582 961L624 951M512 953L540 968M512 953L498 972M512 953L554 949M512 953L483 937M512 953L469 955M512 953L526 936M498 972L540 968M498 972L526 987M498 972L512 953M498 972L469 955M498 972L457 973M498 972L485 991M554 949L540 968M554 949L582 961M554 949L512 953M554 949L526 936M554 949L570 931M554 949L597 941M483 937L512 953M483 937L469 955M483 937L526 936M483 937L453 920M483 937L440 936M483 937L497 922M469 955L512 953M469 955L498 972M469 955L483 937M469 955L440 936M469 955L429 954M469 955L457 973M526 936L512 953M526 936L554 949M526 936L483 937M526 936L497 922M526 936L542 921M526 936L570 931M453 920L421 900M453 920L410 915M453 920L483 937M453 920L440 936M453 920L497 922M453 920L468 908M440 936L399 932M440 936L410 915M440 936L483 937M440 936L469 955M440 936L453 920M440 936L429 954M497 922L483 937M497 922L526 936M497 922L453 920M497 922L468 908M497 922L515 912M497 922L542 921M468 908L421 900M468 908L438 896M468 908L453 920M468 908L497 922M468 908L488 904M468 908L515 912M429 954L389 951M429 954L399 932M429 954L469 955M429 954L440 936M429 954L417 973M429 954L457 973M417 973L379 971M417 973L389 951M417 973L429 954M417 973L406 992M417 973L457 973M417 973L445 993M406 992L369 990M406 992L379 971M406 992L417 973M406 992L395 1011M406 992L445 993M406 992L433 1011M395 1011L359 1009M395 1011L369 990M395 1011L406 992M395 1011L384 1029M395 1011L433 1011M395 1011L421 1029M384 1029L349 1027M384 1029L359 1009M384 1029L395 1011M384 1029L373 1045M384 1029L421 1029M384 1029L408 1046M373 1045L339 1043M373 1045L349 1027M373 1045L384 1029M373 1045L362 1060M373 1045L408 1046M373 1045L396 1060M362 1060L330 1058M362 1060L339 1043M362 1060L350 1072M362 1060L382 1072M362 1060L373 1045M362 1060L396 1060M457 973L498 972M457 973L469 955M457 973L429 954M457 973L417 973M457 973L445 993M457 973L485 991M445 993L417 973M445 993L406 992M445 993L457 973M445 993L433 1011M445 993L485 991M445 993L472 1010M433 1011L406 992M433 1011L395 1011M433 1011L445 993M433 1011L421 1029M433 1011L472 1010M433 1011L459 1028M421 1029L395 1011M421 1029L384 1029M421 1029L433 1011M421 1029L408 1046M421 1029L459 1028M421 1029L445 1045M408 1046L384 1029M408 1046L373 1045M408 1046L421 1029M408 1046L396 1060M408 1046L445 1045M408 1046L432 1059M396 1060L382 1072M396 1060L417 1071M396 1060L373 1045M396 1060L362 1060M396 1060L408 1046M396 1060L432 1059M485 991L526 987M485 991L498 972M485 991L457 973M485 991L445 993M485 991L472 1010M485 991L512 1006M472 1010L445 993M472 1010L433 1011M472 1010L485 991M472 1010L459 1028M472 1010L512 1006M472 1010L498 1025M459 1028L433 1011M459 1028L421 1029M459 1028L472 1010M459 1028L445 1045M459 1028L498 1025M459 1028L484 1042M445 1045L421 1029M445 1045L408 1046M445 1045L459 1028M445 1045L432 1059M445 1045L484 1042M445 1045L469 1057M432 1059L417 1071M432 1059L454 1069M432 1059L408 1046M432 1059L396 1060M432 1059L445 1045M432 1059L469 1057M512 1006L553 1000M512 1006L526 987M512 1006L485 991M512 1006L472 1010M512 1006L498 1025M512 1006L539 1019M498 1025L472 1010M498 1025L459 1028M498 1025L512 1006M498 1025L484 1042M498 1025L539 1019M498 1025L524 1037M484 1042L459 1028M484 1042L445 1045M484 1042L498 1025M484 1042L469 1057M484 1042L524 1037M484 1042L508 1052M469 1057L454 1069M469 1057L492 1065M469 1057L445 1045M469 1057L432 1059M469 1057L484 1042M469 1057L508 1052M539 1019L579 1011M539 1019L553 1000M539 1019L512 1006M539 1019L498 1025M539 1019L524 1037M539 1019L564 1030M524 1037L498 1025M524 1037L484 1042M524 1037L539 1019M524 1037L508 1052M524 1037L564 1030M524 1037L548 1046M508 1052L492 1065M508 1052L532 1058M508 1052L484 1042M508 1052L469 1057M508 1052L524 1037M508 1052L548 1046M564 1030L605 1020M564 1030L579 1011M564 1030L539 1019M564 1030L524 1037M564 1030L548 1046M564 1030L589 1037M548 1046L532 1058M548 1046L572 1051M548 1046L524 1037M548 1046L508 1052M548 1046L564 1030M548 1046L589 1037M589 1037L572 1051M589 1037L613 1040M589 1037L630 1026M589 1037L605 1020M589 1037L564 1030M589 1037L548 1046M750 981L734 998M750 981L710 998M750 981L773 980M750 981L765 961M750 981L726 979M750 981L788 962M773 980L734 998M773 980L755 994M773 980L750 981M773 980L788 962M773 980L794 976M773 980L810 961M765 961L750 981M765 961L726 979M765 961L788 962M765 961L779 938M765 961L741 957M765 961L802 941M726 979L710 998M726 979L686 994M726 979L750 981M726 979L765 961M726 979L741 957M726 979L701 974M788 962L750 981M788 962L773 980M788 962L765 961M788 962L802 941M788 962L810 961M788 962L825 942M779 938L765 961M779 938L741 957M779 938L802 941M779 938L792 913M779 938L754 933M779 938L815 917M741 957L765 961M741 957L726 979M741 957L779 938M741 957L754 933M741 957L701 974M741 957L716 952M802 941L765 961M802 941L788 962M802 941L779 938M802 941L815 917M802 941L838 920M802 941L825 942M792 913L779 938M792 913L754 933M792 913L815 917M792 913L804 886M792 913L768 908M792 913L827 891M754 933L779 938M754 933L741 957M754 933L792 913M754 933L768 908M754 933L716 952M754 933L730 928M815 917L779 938M815 917L802 941M815 917L792 913M815 917L827 891M815 917L850 894M815 917L838 920M804 886L792 913M804 886L768 908M804 886L827 891M804 886L816 857M804 886L781 881M804 886L838 862M768 908L792 913M768 908L754 933M768 908L804 886M768 908L781 881M768 908L730 928M768 908L744 903M827 891L792 913M827 891L815 917M827 891L804 886M827 891L838 862M827 891L861 866M827 891L850 894M816 857L804 886M816 857L781 881M816 857L838 862M816 857L827 827M816 857L793 853M816 857L849 831M781 881L804 886M781 881L768 908M781 881L816 857M781 881L793 853M781 881L744 903M781 881L757 877M838 862L804 886M838 862L827 891M838 862L816 857M838 862L849 831M838 862L871 836M838 862L861 866M827 827L816 857M827 827L793 853M827 827L849 831M827 827L837 795M827 827L805 824M827 827L858 799M793 853L816 857M793 853L781 881M793 853L827 827M793 853L805 824M793 853L757 877M793 853L770 851M849 831L816 857M849 831L838 862M849 831L827 827M849 831L858 799M849 831L880 804M849 831L871 836M837 795L827 827M837 795L805 824M837 795L858 799M837 795L848 762M837 795L817 794M837 795L867 765M805 824L827 827M805 824L793 853M805 824L837 795M805 824L817 794M805 824L770 851M805 824L784 824M858 799L827 827M858 799L849 831M858 799L837 795M858 799L867 765M858 799L888 770M858 799L880 804M848 762L837 795M848 762L817 794M848 762L867 765M848 762L858 725M848 762L829 764M848 762L876 728M817 794L837 795M817 794L805 824M817 794L848 762M817 794L829 764M817 794L797 798M817 794L784 824M867 765L837 795M867 765L858 799M867 765L848 762M867 765L876 728M867 765L895 734M867 765L888 770M858 725L848 762M858 725L829 764M858 725L876 728M858 725L871 683M858 725L842 734M858 725L884 688M829 764L848 762M829 764L817 794M829 764L858 725M829 764L842 734M829 764L812 775M829 764L797 798M876 728L848 762M876 728L867 765M876 728L858 725M876 728L884 688M876 728L902 696M876 728L895 734M871 683L858 725M871 683L842 734M871 683L884 688M871 683L888 627M871 683L893 644M842 734L858 725M842 734L829 764M842 734L871 683M842 734L812 775M884 688L858 725M884 688L876 728M884 688L871 683M884 688L893 644M884 688L902 696M884 688L908 655M888 627L871 683M888 627L893 644M888 627L897 576M888 627L901 596M893 644L871 683M893 644L884 688M893 644L888 627M893 644L908 655M893 644L901 596M893 644L912 611M812 775L829 764M812 775L842 734M812 775L778 808M812 775L797 798M778 808L812 775M778 808L797 798M778 808L743 837M778 808L763 828M797 798L817 794M797 798L829 764M797 798L812 775M797 798L778 808M797 798L763 828M797 798L784 824M743 837L778 808M743 837L763 828M743 837L705 860M743 837L726 854M763 828L778 808M763 828L797 798M763 828L743 837M763 828L726 854M763 828L748 851M763 828L784 824M705 860L743 837M705 860L726 854M705 860L665 879M705 860L687 875M726 854L743 837M726 854L763 828M726 854L705 860M726 854L687 875M726 854L710 873M726 854L748 851M665 879L705 860M665 879L687 875M665 879L624 893M665 879L647 891M687 875L705 860M687 875L726 854M687 875L665 879M687 875L647 891M687 875L670 892M687 875L710 873M624 893L665 879M624 893L647 891M624 893L581 902M624 893L604 903M647 891L665 879M647 891L687 875M647 891L624 893M647 891L604 903M647 891L629 906M647 891L670 892M581 902L624 893M581 902L604 903M581 902L536 906M581 902L560 910M604 903L624 893M604 903L647 891M604 903L581 902M604 903L560 910M604 903L586 916M604 903L629 906M536 906L581 902M536 906L560 910M536 906L488 904M536 906L515 912M560 910L581 902M560 910L604 903M560 910L536 906M560 910L515 912M560 910L542 921M560 910L586 916M488 904L438 896M488 904L468 908M488 904L536 906M488 904L515 912M515 912L497 922M515 912L468 908M515 912L536 906M515 912L560 910M515 912L488 904M515 912L542 921M542 921L526 936M542 921L497 922M542 921L560 910M542 921L515 912M542 921L570 931M542 921L586 916M570 931L554 949M570 931L526 936M570 931L542 921M570 931L597 941M570 931L586 916M570 931L612 923M597 941L582 961M597 941L554 949M597 941L570 931M597 941L624 951M597 941L612 923M597 941L638 930M624 951L609 971M624 951L582 961M624 951L597 941M624 951L650 959M624 951L638 930M624 951L664 938M650 959L635 981M650 959L609 971M650 959L624 951M650 959L676 967M650 959L664 938M650 959L690 945M676 967L661 989M676 967L635 981M676 967L650 959M676 967L701 974M676 967L690 945M676 967L716 952M701 974L686 994M701 974L661 989M701 974L726 979M701 974L741 957M701 974L676 967M701 974L716 952M586 916L604 903M586 916L560 910M586 916L542 921M586 916L570 931M586 916L612 923M586 916L629 906M612 923L570 931M612 923L597 941M612 923L586 916M612 923L638 930M612 923L629 906M612 923L654 911M638 930L597 941M638 930L624 951M638 930L612 923M638 930L664 938M638 930L654 911M638 930L679 916M664 938L624 951M664 938L650 959M664 938L638 930M664 938L690 945M664 938L679 916M664 938L705 922M690 945L650 959M690 945L676 967M690 945L664 938M690 945L716 952M690 945L705 922M690 945L730 928M716 952L741 957M716 952L754 933M716 952L676 967M716 952L701 974M716 952L690 945M716 952L730 928M629 906L647 891M629 906L604 903M629 906L586 916M629 906L612 923M629 906L654 911M629 906L670 892M654 911L612 923M654 911L638 930M654 911L629 906M654 911L679 916M654 911L670 892M654 911L694 894M679 916L638 930M679 916L664 938M679 916L654 911M679 916L705 922M679 916L694 894M679 916L719 898M705 922L664 938M705 922L690 945M705 922L679 916M705 922L730 928M705 922L719 898M705 922L744 903M730 928L754 933M730 928L768 908M730 928L690 945M730 928L716 952M730 928L705 922M730 928L744 903M670 892L687 875M670 892L647 891M670 892L629 906M670 892L654 911M670 892L694 894M670 892L710 873M694 894L654 911M694 894L679 916M694 894L670 892M694 894L719 898M694 894L710 873M694 894L733 874M719 898L679 916M719 898L705 922M719 898L694 894M719 898L744 903M719 898L733 874M719 898L757 877M744 903L768 908M744 903L781 881M744 903L705 922M744 903L730 928M744 903L719 898M744 903L757 877M710 873L726 854M710 873L687 875M710 873L670 892M710 873L694 894M710 873L733 874M710 873L748 851M733 874L694 894M733 874L719 898M733 874L710 873M733 874L757 877M733 874L748 851M733 874L770 851M757 877L781 881M757 877L793 853M757 877L719 898M757 877L744 903M757 877L733 874M757 877L770 851M748 851L763 828M748 851L726 854M748 851L710 873M748 851L733 874M748 851L770 851M748 851L784 824M770 851L793 853M770 851L805 824M770 851L733 874M770 851L757 877M770 851L748 851M770 851L784 824M784 824L805 824M784 824L817 794M784 824L797 798M784 824L763 828M784 824L748 851M784 824L770 851M794 976L755 994M794 976L773 980M794 976L831 955M794 976L810 961M831 955L794 976M831 955L810 961M831 955L866 934M831 955L846 940M810 961L773 980M810 961L788 962M810 961L794 976M810 961L831 955M810 961L846 940M810 961L825 942M866 934L831 955M866 934L846 940M866 934L900 912M866 934L881 918M846 940L831 955M846 940L810 961M846 940L866 934M846 940L881 918M846 940L825 942M846 940L860 920M900 912L866 934M900 912L881 918M900 912L932 889M900 912L914 895M881 918L866 934M881 918L846 940M881 918L900 912M881 918L914 895M881 918L860 920M881 918L893 897M932 889L900 912M932 889L914 895M932 889L962 866M932 889L945 872M914 895L900 912M914 895L881 918M914 895L932 889M914 895L945 872M914 895L893 897M914 895L925 874M962 866L932 889M962 866L945 872M962 866L991 843M962 866L974 849M945 872L932 889M945 872L914 895M945 872L962 866M945 872L974 849M945 872L925 874M945 872L955 850M991 843L962 866M991 843L974 849M991 843L1016 821M991 843L1001 826M974 849L962 866M974 849L945 872M974 849L991 843M974 849L1001 826M974 849L955 850M974 849L983 826M1016 821L991 843M1016 821L1001 826M1016 821L1039 800M1016 821L1025 803M1001 826L991 843M1001 826L974 849M1001 826L1016 821M1001 826L1025 803M1001 826L983 826M1001 826L1008 802M1039 800L1016 821M1039 800L1025 803M1039 800L1057 781M1039 800L1045 782M1025 803L1016 821M1025 803L1001 826M1025 803L1039 800M1025 803L1045 782M1025 803L1031 779M1025 803L1008 802M1057 781L1039 800M1057 781L1045 782M1057 781L1071 767M1057 781L1062 763M1045 782L1039 800M1045 782L1025 803M1045 782L1057 781M1045 782L1062 763M1045 782L1050 758M1045 782L1031 779M1071 767L1057 781M1071 767L1062 763M1071 767L1073 747M1062 763L1057 781M1062 763L1045 782M1062 763L1071 767M1062 763L1073 747M1062 763L1050 758M1062 763L1065 738M1073 747L1071 767M1073 747L1062 763M1073 747L1065 738M1073 747L1075 722M1050 758L1045 782M1050 758L1062 763M1050 758L1065 738M1050 758L1035 752M1050 758L1031 779M1050 758L1054 730M1065 738L1062 763M1065 738L1073 747M1065 738L1050 758M1065 738L1054 730M1065 738L1075 722M1065 738L1068 710M1035 752L1050 758M1035 752L1031 779M1035 752L1054 730M1035 752L1019 744M1035 752L1014 775M1035 752L1039 721M1031 779L1025 803M1031 779L1045 782M1031 779L1050 758M1031 779L1035 752M1031 779L1014 775M1031 779L1008 802M1054 730L1050 758M1054 730L1065 738M1054 730L1035 752M1054 730L1039 721M1054 730L1068 710M1054 730L1056 699M1019 744L1035 752M1019 744L1014 775M1019 744L1039 721M1019 744L1001 737M1019 744L996 769M1019 744L1023 712M1014 775L1035 752M1014 775L1031 779M1014 775L1019 744M1014 775L996 769M1014 775L990 799M1014 775L1008 802M1039 721L1035 752M1039 721L1054 730M1039 721L1019 744M1039 721L1023 712M1039 721L1041 688M1039 721L1056 699M1001 737L1019 744M1001 737L996 769M1001 737L1023 712M1001 737L982 729M1001 737L977 763M1001 737L1004 702M996 769L1019 744M996 769L1014 775M996 769L1001 737M996 769L977 763M996 769L971 794M996 769L990 799M1023 712L1019 744M1023 712L1039 721M1023 712L1001 737M1023 712L1004 702M1023 712L1024 677M1023 712L1041 688M982 729L1001 737M982 729L977 763M982 729L1004 702M982 729L961 720M982 729L957 756M982 729L985 693M977 763L1001 737M977 763L996 769M977 763L982 729M977 763L957 756M977 763L951 789M977 763L971 794M1004 702L1001 737M1004 702L1023 712M1004 702L982 729M1004 702L985 693M1004 702L1006 666M1004 702L1024 677M961 720L982 729M961 720L957 756M961 720L985 693M961 720L941 712M961 720L936 748M961 720L965 683M957 756L982 729M957 756L977 763M957 756L961 720M957 756L936 748M957 756L930 783M957 756L951 789M985 693L982 729M985 693L1004 702M985 693L961 720M985 693L965 683M985 693L986 655M985 693L1006 666M941 712L961 720M941 712L936 748M941 712L965 683M941 712L921 704M941 712L916 741M941 712L945 674M936 748L961 720M936 748L957 756M936 748L941 712M936 748L916 741M936 748L909 776M936 748L930 783M965 683L961 720M965 683L985 693M965 683L941 712M965 683L945 674M965 683L966 645M965 683L986 655M921 704L941 712M921 704L916 741M921 704L945 674M921 704L902 696M921 704L895 734M921 704L925 665M916 741L941 712M916 741L936 748M916 741L921 704M916 741L895 734M916 741L888 770M916 741L909 776M945 674L941 712M945 674L965 683M945 674L921 704M945 674L925 665M945 674L947 634M945 674L966 645M902 696L876 728M902 696L884 688M902 696L921 704M902 696L895 734M902 696L925 665M902 696L908 655M895 734L867 765M895 734L876 728M895 734L921 704M895 734L916 741M895 734L902 696M895 734L888 770M925 665L921 704M925 665L945 674M925 665L902 696M925 665L908 655M925 665L929 623M925 665L947 634M908 655L884 688M908 655L893 644M908 655L902 696M908 655L925 665M908 655L912 611M908 655L929 623M888 770L858 799M888 770L867 765M888 770L916 741M888 770L895 734M888 770L880 804M888 770L909 776M880 804L849 831M880 804L858 799M880 804L888 770M880 804L871 836M880 804L909 776M880 804L901 810M871 836L838 862M871 836L849 831M871 836L880 804M871 836L861 866M871 836L901 810M871 836L892 841M861 866L827 891M861 866L838 862M861 866L871 836M861 866L850 894M861 866L892 841M861 866L883 870M850 894L815 917M850 894L827 891M850 894L861 866M850 894L838 920M850 894L883 870M850 894L872 897M838 920L802 941M838 920L815 917M838 920L850 894M838 920L825 942M838 920L872 897M838 920L860 920M825 942L788 962M825 942L802 941M825 942L810 961M825 942L846 940M825 942L838 920M825 942L860 920M909 776L936 748M909 776L916 741M909 776L888 770M909 776L880 804M909 776L901 810M909 776L930 783M901 810L880 804M901 810L871 836M901 810L909 776M901 810L892 841M901 810L930 783M901 810L923 815M892 841L871 836M892 841L861 866M892 841L901 810M892 841L883 870M892 841L923 815M892 841L914 845M883 870L861 866M883 870L850 894M883 870L892 841M883 870L872 897M883 870L914 845M883 870L904 873M872 897L850 894M872 897L838 920M872 897L883 870M872 897L860 920M872 897L904 873M872 897L893 897M860 920L846 940M860 920L881 918M860 920L838 920M860 920L825 942M860 920L872 897M860 920L893 897M930 783L957 756M930 783L936 748M930 783L909 776M930 783L901 810M930 783L923 815M930 783L951 789M923 815L901 810M923 815L892 841M923 815L930 783M923 815L914 845M923 815L951 789M923 815L944 820M914 845L892 841M914 845L883 870M914 845L923 815M914 845L904 873M914 845L944 820M914 845L935 848M904 873L883 870M904 873L872 897M904 873L914 845M904 873L893 897M904 873L935 848M904 873L925 874M893 897L881 918M893 897L914 895M893 897L872 897M893 897L860 920M893 897L904 873M893 897L925 874M951 789L977 763M951 789L957 756M951 789L930 783M951 789L923 815M951 789L944 820M951 789L971 794M944 820L923 815M944 820L914 845M944 820L951 789M944 820L935 848M944 820L971 794M944 820L964 824M935 848L914 845M935 848L904 873M935 848L944 820M935 848L925 874M935 848L964 824M935 848L955 850M925 874L914 895M925 874L945 872M925 874L904 873M925 874L893 897M925 874L935 848M925 874L955 850M971 794L996 769M971 794L977 763M971 794L951 789M971 794L944 820M971 794L964 824M971 794L990 799M964 824L944 820M964 824L935 848M964 824L971 794M964 824L955 850M964 824L990 799M964 824L983 826M955 850L945 872M955 850L974 849M955 850L935 848M955 850L925 874M955 850L964 824M955 850L983 826M990 799L1014 775M990 799L996 769M990 799L971 794M990 799L964 824M990 799L983 826M990 799L1008 802M983 826L974 849M983 826L1001 826M983 826L964 824M983 826L955 850M983 826L990 799M983 826L1008 802M1008 802L1001 826M1008 802L1025 803M1008 802L1031 779M1008 802L1014 775M1008 802L990 799M1008 802L983 826M771 258L731 230M771 258L761 241M771 258L804 289M771 258L795 271M804 289L771 258M804 289L795 271M804 289L832 323M804 289L824 303M795 271L761 241M795 271L791 251M795 271L771 258M795 271L804 289M795 271L824 303M795 271L820 282M832 323L804 289M832 323L824 303M832 323L854 359M832 323L848 339M824 303L804 289M824 303L795 271M824 303L832 323M824 303L848 339M824 303L820 282M824 303L846 317M854 359L832 323M854 359L848 339M854 359L872 399M854 359L869 377M848 339L832 323M848 339L824 303M848 339L854 359M848 339L869 377M848 339L846 317M848 339L868 354M872 399L854 359M872 399L869 377M872 399L886 440M872 399L885 417M869 377L854 359M869 377L848 339M869 377L872 399M869 377L885 417M869 377L868 354M869 377L886 393M886 440L872 399M886 440L885 417M886 440L895 483M886 440L896 459M885 417L872 399M885 417L869 377M885 417L886 440M885 417L896 459M885 417L886 393M885 417L900 434M895 483L886 440M895 483L896 459M895 483L899 529M895 483L903 503M896 459L886 440M896 459L885 417M896 459L895 483M896 459L903 503M896 459L900 434M896 459L909 477M899 529L895 483M899 529L903 503M899 529L897 576M899 529L904 549M903 503L895 483M903 503L896 459M903 503L899 529M903 503L904 549M903 503L909 477M903 503L914 521M897 576L888 627M897 576L899 529M897 576L904 549M897 576L901 596M904 549L899 529M904 549L903 503M904 549L897 576M904 549L901 596M904 549L915 566M904 549L914 521M901 596L888 627M901 596L893 644M901 596L897 576M901 596L904 549M901 596L912 611M901 596L915 566M912 611L893 644M912 611L908 655M912 611L901 596M912 611L930 581M912 611L915 566M912 611L929 623M930 581L912 611M930 581L915 566M930 581L929 623M930 581L946 551M930 581L929 537M930 581L947 593M915 566L904 549M915 566L901 596M915 566L912 611M915 566L930 581M915 566L929 537M915 566L914 521M929 623L925 665M929 623L908 655M929 623L912 611M929 623L930 581M929 623L947 593M929 623L947 634M946 551L930 581M946 551L929 537M946 551L947 593M946 551L960 522M946 551L942 508M946 551L965 564M929 537L930 581M929 537L915 566M929 537L946 551M929 537L942 508M929 537L925 493M929 537L914 521M947 593L930 581M947 593L929 623M947 593L946 551M947 593L965 564M947 593L947 634M947 593L967 605M960 522L946 551M960 522L942 508M960 522L965 564M960 522L973 494M960 522L954 480M960 522L980 535M942 508L946 551M942 508L929 537M942 508L960 522M942 508L954 480M942 508L935 466M942 508L925 493M965 564L946 551M965 564L947 593M965 564L960 522M965 564L980 535M965 564L967 605M965 564L984 576M973 494L960 522M973 494L954 480M973 494L980 535M973 494L984 466M973 494L964 452M973 494L993 507M954 480L960 522M954 480L942 508M954 480L973 494M954 480L964 452M954 480L944 438M954 480L935 466M980 535L960 522M980 535L965 564M980 535L973 494M980 535L993 507M980 535L984 576M980 535L999 548M984 466L973 494M984 466L964 452M984 466L993 507M984 466L993 440M984 466L973 425M984 466L1004 480M964 452L973 494M964 452L954 480M964 452L984 466M964 452L973 425M964 452L952 411M964 452L944 438M993 507L973 494M993 507L980 535M993 507L984 466M993 507L1004 480M993 507L999 548M993 507L1012 521M993 440L984 466M993 440L973 425M993 440L1004 480M993 440L999 414M993 440L980 399M993 440L1012 454M973 425L984 466M973 425L964 452M973 425L993 440M973 425L980 399M973 425L959 385M973 425L952 411M1004 480L984 466M1004 480L993 507M1004 480L993 440M1004 480L1012 454M1004 480L1012 521M1004 480L1022 495M999 414L993 440M999 414L980 399M999 414L1012 454M999 414L1003 389M999 414L985 374M999 414L1017 429M980 399L993 440M980 399L973 425M980 399L999 414M980 399L985 374M980 399L965 359M980 399L959 385M1012 454L993 440M1012 454L1004 480M1012 454L999 414M1012 454L1017 429M1012 454L1022 495M1012 454L1029 470M1003 389L987 350M1003 389L1003 366M1003 389L999 414M1003 389L985 374M1003 389L1017 429M1003 389L1019 406M985 374L968 335M985 374L987 350M985 374L999 414M985 374L980 399M985 374L1003 389M985 374L965 359M1017 429L999 414M1017 429L1012 454M1017 429L1003 389M1017 429L1019 406M1017 429L1032 446M1017 429L1029 470M1019 406L1003 366M1019 406L1016 384M1019 406L1003 389M1019 406L1017 429M1019 406L1031 424M1019 406L1032 446M965 359L947 321M965 359L968 335M965 359L980 399M965 359L985 374M965 359L943 346M965 359L959 385M943 346L924 308M943 346L947 321M943 346L965 359M943 346L920 332M943 346L959 385M943 346L937 371M920 332L900 295M920 332L924 308M920 332L943 346M920 332L896 320M920 332L937 371M920 332L915 358M896 320L875 283M896 320L900 295M896 320L920 332M896 320L871 307M896 320L915 358M896 320L892 344M871 307L848 272M871 307L875 283M871 307L896 320M871 307L846 295M871 307L892 344M871 307L869 330M846 295L820 261M846 295L848 272M846 295L871 307M846 295L820 282M846 295L869 330M846 295L846 317M820 282L791 251M820 282L820 261M820 282L795 271M820 282L824 303M820 282L846 295M820 282L846 317M959 385L973 425M959 385L980 399M959 385L965 359M959 385L943 346M959 385L937 371M959 385L952 411M937 371L943 346M937 371L920 332M937 371L959 385M937 371L915 358M937 371L952 411M937 371L931 397M915 358L920 332M915 358L896 320M915 358L937 371M915 358L892 344M915 358L931 397M915 358L909 383M892 344L896 320M892 344L871 307M892 344L915 358M892 344L869 330M892 344L909 383M892 344L888 369M869 330L871 307M869 330L846 295M869 330L892 344M869 330L846 317M869 330L888 369M869 330L868 354M846 317L824 303M846 317L848 339M846 317L846 295M846 317L820 282M846 317L869 330M846 317L868 354M952 411L964 452M952 411L973 425M952 411L959 385M952 411L937 371M952 411L931 397M952 411L944 438M931 397L937 371M931 397L915 358M931 397L952 411M931 397L909 383M931 397L944 438M931 397L924 424M909 383L915 358M909 383L892 344M909 383L931 397M909 383L888 369M909 383L924 424M909 383L904 409M888 369L892 344M888 369L869 330M888 369L909 383M888 369L868 354M888 369L904 409M888 369L886 393M868 354L848 339M868 354L869 377M868 354L869 330M868 354L846 317M868 354L888 369M868 354L886 393M944 438L954 480M944 438L964 452M944 438L952 411M944 438L931 397M944 438L924 424M944 438L935 466M924 424L931 397M924 424L909 383M924 424L944 438M924 424L904 409M924 424L935 466M924 424L916 450M904 409L909 383M904 409L888 369M904 409L924 424M904 409L886 393M904 409L916 450M904 409L900 434M886 393L869 377M886 393L885 417M886 393L888 369M886 393L868 354M886 393L904 409M886 393L900 434M935 466L942 508M935 466L954 480M935 466L944 438M935 466L924 424M935 466L916 450M935 466L925 493M916 450L924 424M916 450L904 409M916 450L935 466M916 450L900 434M916 450L925 493M916 450L909 477M900 434L885 417M900 434L896 459M900 434L904 409M900 434L886 393M900 434L916 450M900 434L909 477M925 493L929 537M925 493L942 508M925 493L935 466M925 493L916 450M925 493L909 477M925 493L914 521M909 477L896 459M909 477L903 503M909 477L916 450M909 477L900 434M909 477L925 493M909 477L914 521M914 521L903 503M914 521L904 549M914 521L915 566M914 521L929 537M914 521L925 493M914 521L909 477M1075 722L1073 747M1075 722L1065 738M1075 722L1076 692M1075 722L1068 710M1076 692L1075 722M1076 692L1068 710M1076 692L1075 658M1076 692L1069 677M1068 710L1065 738M1068 710L1054 730M1068 710L1075 722M1068 710L1076 692M1068 710L1069 677M1068 710L1056 699M1075 658L1076 692M1075 658L1069 677M1075 658L1072 622M1075 658L1067 642M1069 677L1076 692M1069 677L1068 710M1069 677L1075 658M1069 677L1067 642M1069 677L1056 699M1069 677L1057 664M1072 622L1075 658M1072 622L1067 642M1072 622L1068 584M1072 622L1064 605M1067 642L1075 658M1067 642L1069 677M1067 642L1072 622M1067 642L1064 605M1067 642L1057 664M1067 642L1055 628M1068 584L1072 622M1068 584L1064 605M1068 584L1061 545M1068 584L1059 566M1064 605L1072 622M1064 605L1067 642M1064 605L1068 584M1064 605L1059 566M1064 605L1055 628M1064 605L1052 590M1061 545L1068 584M1061 545L1059 566M1061 545L1053 505M1061 545L1052 527M1059 566L1068 584M1059 566L1064 605M1059 566L1061 545M1059 566L1052 527M1059 566L1052 590M1059 566L1046 550M1053 505L1061 545M1053 505L1052 527M1053 505L1043 465M1053 505L1043 487M1052 527L1061 545M1052 527L1059 566M1052 527L1053 505M1052 527L1043 487M1052 527L1046 550M1052 527L1039 511M1043 465L1053 505M1043 465L1043 487M1043 465L1031 424M1043 465L1032 446M1043 487L1053 505M1043 487L1052 527M1043 487L1043 465M1043 487L1032 446M1043 487L1039 511M1043 487L1029 470M1031 424L1016 384M1031 424L1019 406M1031 424L1043 465M1031 424L1032 446M1032 446L1017 429M1032 446L1019 406M1032 446L1043 465M1032 446L1043 487M1032 446L1031 424M1032 446L1029 470M947 634L945 674M947 634L925 665M947 634L929 623M947 634L947 593M947 634L966 645M947 634L967 605M966 645L965 683M966 645L945 674M966 645L947 634M966 645L986 655M966 645L967 605M966 645L986 616M986 655L985 693M986 655L965 683M986 655L966 645M986 655L1006 666M986 655L986 616M986 655L1005 628M1006 666L1004 702M1006 666L985 693M1006 666L986 655M1006 666L1024 677M1006 666L1005 628M1006 666L1024 640M1024 677L1023 712M1024 677L1004 702M1024 677L1006 666M1024 677L1041 688M1024 677L1024 640M1024 677L1041 652M1041 688L1039 721M1041 688L1023 712M1041 688L1024 677M1041 688L1056 699M1041 688L1041 652M1041 688L1057 664M1056 699L1054 730M1056 699L1039 721M1056 699L1068 710M1056 699L1069 677M1056 699L1041 688M1056 699L1057 664M967 605L947 593M967 605L965 564M967 605L947 634M967 605L966 645M967 605L986 616M967 605L984 576M986 616L966 645M986 616L986 655M986 616L967 605M986 616L1005 628M986 616L984 576M986 616L1003 588M1005 628L986 655M1005 628L1006 666M1005 628L986 616M1005 628L1024 640M1005 628L1003 588M1005 628L1022 601M1024 640L1006 666M1024 640L1024 677M1024 640L1005 628M1024 640L1041 652M1024 640L1022 601M1024 640L1040 614M1041 652L1024 677M1041 652L1041 688M1041 652L1024 640M1041 652L1057 664M1041 652L1040 614M1041 652L1055 628M1057 664L1069 677M1057 664L1067 642M1057 664L1041 688M1057 664L1056 699M1057 664L1041 652M1057 664L1055 628M984 576L965 564M984 576L980 535M984 576L967 605M984 576L986 616M984 576L1003 588M984 576L999 548M1003 588L986 616M1003 588L1005 628M1003 588L984 576M1003 588L1022 601M1003 588L999 548M1003 588L1018 561M1022 601L1005 628M1022 601L1024 640M1022 601L1003 588M1022 601L1040 614M1022 601L1018 561M1022 601L1036 575M1040 614L1024 640M1040 614L1041 652M1040 614L1022 601M1040 614L1055 628M1040 614L1036 575M1040 614L1052 590M1055 628L1067 642M1055 628L1064 605M1055 628L1041 652M1055 628L1057 664M1055 628L1040 614M1055 628L1052 590M999 548L980 535M999 548L993 507M999 548L984 576M999 548L1003 588M999 548L1018 561M999 548L1012 521M1018 561L1003 588M1018 561L1022 601M1018 561L999 548M1018 561L1036 575M1018 561L1012 521M1018 561L1030 535M1036 575L1022 601M1036 575L1040 614M1036 575L1018 561M1036 575L1052 590M1036 575L1030 535M1036 575L1046 550M1052 590L1064 605M1052 590L1059 566M1052 590L1040 614M1052 590L1055 628M1052 590L1036 575M1052 590L1046 550M1012 521L993 507M1012 521L1004 480M1012 521L999 548M1012 521L1018 561M1012 521L1030 535M1012 521L1022 495M1030 535L1018 561M1030 535L1036 575M1030 535L1012 521M1030 535L1046 550M1030 535L1022 495M1030 535L1039 511M1046 550L1059 566M1046 550L1052 527M1046 550L1036 575M1046 550L1052 590M1046 550L1030 535M1046 550L1039 511M1022 495L1004 480M1022 495L1012 454M1022 495L1012 521M1022 495L1030 535M1022 495L1039 511M1022 495L1029 470M1039 511L1052 527M1039 511L1043 487M1039 511L1030 535M1039 511L1046 550M1039 511L1022 495M1039 511L1029 470M1029 470L1012 454M1029 470L1017 429M1029 470L1043 487M1029 470L1032 446M1029 470L1022 495M1029 470L1039 511"/>
</svg>